# Blender 4.3.2
# www.blender.org
mtllib decor.mtl
o Cube.947
v -6.317099 -24.632288 -4.888511
v -6.317099 22.281582 -4.888511
v -6.317099 -24.632288 -6.417888
v -6.317099 22.281582 -6.417888
v -4.787723 -24.632288 -4.888511
v -4.787723 22.281582 -4.888511
v -4.787723 -24.632288 -6.417888
v -4.787723 22.281582 -6.417888
v 5.012121 -24.570288 6.777058
v 5.012121 -8.716472 6.777058
v 5.012121 -24.570288 5.859102
v 5.012121 -8.716472 5.859102
v 5.846906 -24.570288 6.777058
v 5.846906 -8.716472 6.777058
v 5.846906 -24.570288 5.859102
v 5.846906 -8.716472 5.859102
v 5.012121 -9.818302 6.777058
v 5.012121 -9.818302 5.859102
v 5.846906 -9.818302 5.859102
v 5.846906 -9.818302 6.777058
v -4.778733 -9.818302 6.777058
v -4.778733 -8.716472 6.777058
v -4.778733 -8.716472 5.859102
v -4.778733 -9.818302 5.859102
v -4.778733 -9.818302 6.777058
v -4.778733 -8.716472 6.777058
v -4.778733 -8.716472 5.859102
v -4.778733 -9.818302 5.859102
v -5.551030 -9.818302 6.777058
v -5.551030 -8.716472 6.777058
v -5.551030 -8.716472 5.859102
v -5.551030 -9.818302 5.859102
v -4.778733 -24.565536 6.777058
v -4.778733 -24.565536 5.859102
v -5.551030 -24.565536 6.777058
v -5.551030 -24.565536 5.859102
v 5.012121 -8.716472 -4.907243
v 5.846906 -8.716472 -4.907243
v 5.012121 -9.818302 -4.907243
v 5.846906 -9.818302 -4.907243
v -4.778733 -8.716472 -4.907243
v -4.778733 -9.818302 -4.907243
v -5.551030 -8.716472 -4.907243
v -5.551030 -9.818302 -4.907243
v 5.012121 -8.716472 -5.877482
v 5.846906 -8.716472 -5.877482
v 5.012121 -9.818302 -5.877482
v 5.846906 -9.818302 -5.877482
v -4.778733 -8.716472 -5.877482
v -4.778733 -9.818302 -5.877482
v -5.551030 -8.716472 -5.877482
v -5.551030 -9.818302 -5.877482
v 5.012121 -24.719078 -4.907243
v 5.846906 -24.719078 -4.907243
v -5.551030 -24.719078 -4.907243
v -4.778733 -24.719078 -4.907243
v 5.012121 -24.719078 -5.877482
v 5.846906 -24.719078 -5.877482
v -5.551030 -24.719078 -5.877482
v -4.778733 -24.719078 -5.877482
v 5.265089 -8.716472 -4.907243
v 5.265089 -9.818302 -4.907243
v 5.265089 -8.716472 -5.877482
v 5.265089 -9.818302 -5.877482
v 5.012121 -23.614948 5.859102
v 5.846906 -23.614948 5.859102
v 5.846906 -23.614948 6.777058
v 5.012121 -23.614948 6.777058
v 5.012121 -23.614948 -4.922304
v 5.012121 -24.570288 -4.922304
v 5.846906 -24.570288 -4.922304
v 5.846906 -23.614948 -4.922304
v 5.012121 -23.614948 -5.865880
v 5.012121 -24.570288 -5.865880
v 5.846906 -24.570288 -5.865880
v 5.846906 -23.614948 -5.865880
v -4.781191 -23.614948 -4.922304
v -4.781191 -24.570288 -4.922304
v -4.781191 -23.614948 -5.865880
v -4.781191 -24.570288 -5.865880
v -5.539113 -23.614948 -4.922304
v -5.539113 -24.570288 -4.922304
v -5.539113 -23.614948 -5.865880
v -5.539113 -24.570288 -5.865880
v -4.828935 -24.570288 5.859102
v -4.828935 -24.570288 6.777058
v -4.828935 -23.614948 5.859102
v -4.828935 -23.614948 6.777058
v -5.571553 -24.570288 5.859102
v -5.571553 -24.570288 6.777058
v -5.571553 -23.614948 5.859102
v -5.571553 -23.614948 6.777058
v -4.828935 -23.614948 -4.975513
v -4.828935 -24.570288 -4.975513
v -5.571553 -23.614948 -4.975513
v -5.571553 -24.570288 -4.975513
v 5.012121 -23.614948 -5.040709
v 5.012121 -24.570288 -5.040709
v -4.828935 -23.614948 -5.040709
v -4.828935 -24.570288 -5.040709
v 5.012121 -8.716472 -4.947607
v 5.012121 -9.818302 -4.947607
v -4.778733 -8.716472 -4.947607
v -4.778733 -9.818302 -4.947607
v -5.325462 -24.151165 5.501596
v -5.325462 -23.567045 6.082603
v -5.325462 -9.912462 -5.228224
v -5.325462 -9.328341 -4.647217
v -5.011945 -24.151165 5.501596
v -5.011945 -23.567045 6.082603
v -5.011945 -9.912462 -5.228224
v -5.011945 -9.328341 -4.647217
v -5.015384 -24.151165 -4.467801
v -5.015384 -23.567045 -5.048807
v -5.015381 -9.912462 6.262020
v -5.015381 -9.328341 5.681013
v -5.328901 -24.151165 -4.467801
v -5.328901 -23.567045 -5.048807
v -5.328898 -9.912462 6.262020
v -5.328898 -9.328341 5.681013
v 4.701179 -24.151165 -5.089763
v 5.229543 -23.567045 -5.089763
v -5.056461 -9.912462 -5.089763
v -4.528096 -9.328341 -5.089763
v 4.701179 -24.151165 -5.436056
v 5.229543 -23.567045 -5.436056
v -5.056461 -9.912462 -5.436056
v -4.528096 -9.328341 -5.436056
v -4.364936 -24.151165 -5.432261
v -4.893300 -23.567045 -5.432259
v 5.392704 -9.912462 -5.432265
v 4.864338 -9.328341 -5.432265
v -4.364936 -24.151165 -5.085968
v -4.893300 -23.567045 -5.085968
v 5.392704 -9.912462 -5.085972
v 4.864338 -9.328341 -5.085972
v 4.701179 -24.151165 6.557387
v 5.229543 -23.567045 6.557387
v -5.056461 -9.912462 6.557387
v -4.528096 -9.328341 6.557387
v 4.701179 -24.151165 6.211095
v 5.229543 -23.567045 6.211095
v -5.056461 -9.912462 6.211096
v -4.528096 -9.328341 6.211096
v -4.364936 -24.151165 6.214891
v -4.893300 -23.567045 6.214891
v 5.392704 -9.912462 6.214886
v 4.864338 -9.328341 6.214886
v -4.364936 -24.151165 6.561183
v -4.893300 -23.567045 6.561183
v 5.392704 -9.912462 6.561178
v 4.864338 -9.328341 6.561178
v 5.277850 -24.151165 5.501596
v 5.277850 -23.567045 6.082603
v 5.277850 -9.912462 -5.228224
v 5.277850 -9.328341 -4.647217
v 5.591367 -24.151165 5.501596
v 5.591367 -23.567045 6.082603
v 5.591367 -9.912462 -5.228224
v 5.591367 -9.328341 -4.647217
v 5.587927 -24.151165 -4.467801
v 5.587927 -23.567045 -5.048807
v 5.587931 -9.912462 6.262020
v 5.587931 -9.328341 5.681013
v 5.274411 -24.151165 -4.467801
v 5.274411 -23.567045 -5.048807
v 5.274414 -9.912462 6.262020
v 5.274414 -9.328341 5.681013
v 5.012121 -9.555505 6.777058
v 5.012121 6.298308 6.777058
v 5.012121 -9.555505 5.859102
v 5.012121 6.298308 5.859102
v 5.846906 -9.555505 6.777058
v 5.846906 6.298308 6.777058
v 5.846906 -9.555505 5.859102
v 5.846906 6.298308 5.859102
v 5.012121 5.196476 6.777058
v 5.012121 5.196476 5.859102
v 5.846906 5.196476 5.859102
v 5.846906 5.196476 6.777058
v -4.778733 5.196476 6.777058
v -4.778733 6.298308 6.777058
v -4.778733 6.298308 5.859102
v -4.778733 5.196476 5.859102
v -4.778733 5.196476 6.777058
v -4.778733 6.298308 6.777058
v -4.778733 6.298308 5.859102
v -4.778733 5.196476 5.859102
v -5.551030 5.196476 6.777058
v -5.551030 6.298308 6.777058
v -5.551030 6.298308 5.859102
v -5.551030 5.196476 5.859102
v -4.778733 -9.550756 6.777058
v -4.778733 -9.550756 5.859102
v -5.551030 -9.550756 6.777058
v -5.551030 -9.550756 5.859102
v 5.012121 6.298308 -4.907243
v 5.846906 6.298308 -4.907243
v 5.012121 5.196476 -4.907243
v 5.846906 5.196476 -4.907243
v -4.778733 6.298308 -4.907243
v -4.778733 5.196476 -4.907243
v -5.551030 6.298308 -4.907243
v -5.551030 5.196476 -4.907243
v 5.012121 6.298308 -5.877482
v 5.846906 6.298308 -5.877482
v 5.012121 5.196476 -5.877482
v 5.846906 5.196476 -5.877482
v -4.778733 6.298308 -5.877482
v -4.778733 5.196476 -5.877482
v -5.551030 6.298308 -5.877482
v -5.551030 5.196476 -5.877482
v 5.012121 -9.704297 -4.907243
v 5.846906 -9.704297 -4.907243
v -5.551030 -9.704297 -4.907243
v -4.778733 -9.704297 -4.907243
v 5.012121 -9.704297 -5.877482
v 5.846906 -9.704297 -5.877482
v -5.551030 -9.704297 -5.877482
v -4.778733 -9.704297 -5.877482
v 5.265089 6.298308 -4.907243
v 5.265089 5.196476 -4.907243
v 5.265089 6.298308 -5.877482
v 5.265089 5.196476 -5.877482
v 5.012121 -8.600168 5.859102
v 5.846906 -8.600168 5.859102
v 5.846906 -8.600168 6.777058
v 5.012121 -8.600168 6.777058
v 5.012121 -8.600168 -4.922304
v 5.012121 -9.555505 -4.922304
v 5.846906 -9.555505 -4.922304
v 5.846906 -8.600168 -4.922304
v 5.012121 -8.600168 -5.865880
v 5.012121 -9.555505 -5.865880
v 5.846906 -9.555505 -5.865880
v 5.846906 -8.600168 -5.865880
v -4.781191 -8.600168 -4.922304
v -4.781191 -9.555505 -4.922304
v -4.781191 -8.600168 -5.865880
v -4.781191 -9.555505 -5.865880
v -5.539113 -8.600168 -4.922304
v -5.539113 -9.555505 -4.922304
v -5.539113 -8.600168 -5.865880
v -5.539113 -9.555505 -5.865880
v -4.828935 -9.555505 5.859102
v -4.828935 -9.555505 6.777058
v -4.828935 -8.600168 5.859102
v -4.828935 -8.600168 6.777058
v -5.571553 -9.555505 5.859102
v -5.571553 -9.555505 6.777058
v -5.571553 -8.600168 5.859102
v -5.571553 -8.600168 6.777058
v -4.828935 -8.600168 -4.975513
v -4.828935 -9.555505 -4.975513
v -5.571553 -8.600168 -4.975513
v -5.571553 -9.555505 -4.975513
v 5.012121 -8.600168 -5.040709
v 5.012121 -9.555505 -5.040709
v -4.828935 -8.600168 -5.040709
v -4.828935 -9.555505 -5.040709
v 5.012121 6.298308 -4.947607
v 5.012121 5.196476 -4.947607
v -4.778733 6.298308 -4.947607
v -4.778733 5.196476 -4.947607
v -5.325462 -9.136384 5.501596
v -5.325462 -8.552265 6.082603
v -5.325462 5.102319 -5.228224
v -5.325462 5.686439 -4.647217
v -5.011945 -9.136384 5.501596
v -5.011945 -8.552265 6.082603
v -5.011945 5.102319 -5.228224
v -5.011945 5.686439 -4.647217
v -5.015384 -9.136384 -4.467801
v -5.015384 -8.552265 -5.048807
v -5.015381 5.102319 6.262020
v -5.015381 5.686439 5.681013
v -5.328901 -9.136384 -4.467801
v -5.328901 -8.552265 -5.048807
v -5.328898 5.102319 6.262020
v -5.328898 5.686439 5.681013
v 4.701179 -9.136384 -5.089763
v 5.229543 -8.552265 -5.089763
v -5.056461 5.102319 -5.089763
v -4.528096 5.686439 -5.089763
v 4.701179 -9.136384 -5.436056
v 5.229543 -8.552265 -5.436056
v -5.056461 5.102319 -5.436056
v -4.528096 5.686439 -5.436056
v -4.364936 -9.136384 -5.432261
v -4.893300 -8.552265 -5.432259
v 5.392704 5.102319 -5.432265
v 4.864338 5.686439 -5.432265
v -4.364936 -9.136384 -5.085968
v -4.893300 -8.552265 -5.085968
v 5.392704 5.102319 -5.085972
v 4.864338 5.686439 -5.085972
v 4.701179 -9.136384 6.557387
v 5.229543 -8.552265 6.557387
v -5.056461 5.102319 6.557387
v -4.528096 5.686439 6.557387
v 4.701179 -9.136384 6.211095
v 5.229543 -8.552265 6.211095
v -5.056461 5.102319 6.211096
v -4.528096 5.686439 6.211096
v -4.364936 -9.136384 6.214891
v -4.893300 -8.552265 6.214891
v 5.392704 5.102319 6.214886
v 4.864338 5.686439 6.214886
v -4.364936 -9.136384 6.561183
v -4.893300 -8.552265 6.561183
v 5.392704 5.102319 6.561178
v 4.864338 5.686439 6.561178
v 5.277850 -9.136384 5.501596
v 5.277850 -8.552265 6.082603
v 5.277850 5.102319 -5.228224
v 5.277850 5.686439 -4.647217
v 5.591367 -9.136384 5.501596
v 5.591367 -8.552265 6.082603
v 5.591367 5.102319 -5.228224
v 5.591367 5.686439 -4.647217
v 5.587927 -9.136384 -4.467801
v 5.587927 -8.552265 -5.048807
v 5.587931 5.102319 6.262020
v 5.587931 5.686439 5.681013
v 5.274411 -9.136384 -4.467801
v 5.274411 -8.552265 -5.048807
v 5.274414 5.102319 6.262020
v 5.274414 5.686439 5.681013
v 5.012121 5.952188 6.777058
v 5.012121 21.806002 6.777058
v 5.012121 5.952188 5.859102
v 5.012121 21.806002 5.859102
v 5.846906 5.952188 6.777058
v 5.846906 21.806002 6.777058
v 5.846906 5.952188 5.859102
v 5.846906 21.806002 5.859102
v 5.012121 20.704170 6.777058
v 5.012121 20.704170 5.859102
v 5.846906 20.704170 5.859102
v 5.846906 20.704170 6.777058
v -4.778733 20.704170 6.777058
v -4.778733 21.806002 6.777058
v -4.778733 21.806002 5.859102
v -4.778733 20.704170 5.859102
v -4.778733 20.704170 6.777058
v -4.778733 21.806002 6.777058
v -4.778733 21.806002 5.859102
v -4.778733 20.704170 5.859102
v -5.551030 20.704170 6.777058
v -5.551030 21.806002 6.777058
v -5.551030 21.806002 5.859102
v -5.551030 20.704170 5.859102
v -4.778733 5.956937 6.777058
v -4.778733 5.956937 5.859102
v -5.551030 5.956937 6.777058
v -5.551030 5.956937 5.859102
v 5.012121 21.806002 -4.907243
v 5.846906 21.806002 -4.907243
v 5.012121 20.704170 -4.907243
v 5.846906 20.704170 -4.907243
v -4.778733 21.806002 -4.907243
v -4.778733 20.704170 -4.907243
v -5.551030 21.806002 -4.907243
v -5.551030 20.704170 -4.907243
v 5.012121 21.806002 -5.877482
v 5.846906 21.806002 -5.877482
v 5.012121 20.704170 -5.877482
v 5.846906 20.704170 -5.877482
v -4.778733 21.806002 -5.877482
v -4.778733 20.704170 -5.877482
v -5.551030 21.806002 -5.877482
v -5.551030 20.704170 -5.877482
v 5.012121 5.803395 -4.907243
v 5.846906 5.803395 -4.907243
v -5.551030 5.803395 -4.907243
v -4.778733 5.803395 -4.907243
v 5.012121 5.803395 -5.877482
v 5.846906 5.803395 -5.877482
v -5.551030 5.803395 -5.877482
v -4.778733 5.803395 -5.877482
v 5.265089 21.806002 -4.907243
v 5.265089 20.704170 -4.907243
v 5.265089 21.806002 -5.877482
v 5.265089 20.704170 -5.877482
v 5.012121 6.907524 5.859102
v 5.846906 6.907524 5.859102
v 5.846906 6.907524 6.777058
v 5.012121 6.907524 6.777058
v 5.012121 6.907524 -4.922304
v 5.012121 5.952188 -4.922304
v 5.846906 5.952188 -4.922304
v 5.846906 6.907524 -4.922304
v 5.012121 6.907524 -5.865880
v 5.012121 5.952188 -5.865880
v 5.846906 5.952188 -5.865880
v 5.846906 6.907524 -5.865880
v -4.781191 6.907524 -4.922304
v -4.781191 5.952188 -4.922304
v -4.781191 6.907524 -5.865880
v -4.781191 5.952188 -5.865880
v -5.539113 6.907524 -4.922304
v -5.539113 5.952188 -4.922304
v -5.539113 6.907524 -5.865880
v -5.539113 5.952188 -5.865880
v -4.828935 5.952188 5.859102
v -4.828935 5.952188 6.777058
v -4.828935 6.907524 5.859102
v -4.828935 6.907524 6.777058
v -5.571553 5.952188 5.859102
v -5.571553 5.952188 6.777058
v -5.571553 6.907524 5.859102
v -5.571553 6.907524 6.777058
v -4.828935 6.907524 -4.975513
v -4.828935 5.952188 -4.975513
v -5.571553 6.907524 -4.975513
v -5.571553 5.952188 -4.975513
v 5.012121 6.907524 -5.040709
v 5.012121 5.952188 -5.040709
v -4.828935 6.907524 -5.040709
v -4.828935 5.952188 -5.040709
v 5.012121 21.806002 -4.947607
v 5.012121 20.704170 -4.947607
v -4.778733 21.806002 -4.947607
v -4.778733 20.704170 -4.947607
v -5.325462 6.371308 5.501596
v -5.325462 6.955427 6.082603
v -5.325462 20.610010 -5.228224
v -5.325462 21.194132 -4.647217
v -5.011945 6.371308 5.501596
v -5.011945 6.955427 6.082603
v -5.011945 20.610010 -5.228224
v -5.011945 21.194132 -4.647217
v -5.015384 6.371308 -4.467801
v -5.015384 6.955427 -5.048807
v -5.015381 20.610010 6.262020
v -5.015381 21.194132 5.681013
v -5.328901 6.371308 -4.467801
v -5.328901 6.955427 -5.048807
v -5.328898 20.610010 6.262020
v -5.328898 21.194132 5.681013
v 4.701179 6.371308 -5.089763
v 5.229543 6.955427 -5.089763
v -5.056461 20.610010 -5.089763
v -4.528096 21.194132 -5.089763
v 4.701179 6.371308 -5.436056
v 5.229543 6.955427 -5.436056
v -5.056461 20.610010 -5.436056
v -4.528096 21.194132 -5.436056
v -4.364936 6.371308 -5.432261
v -4.893300 6.955427 -5.432259
v 5.392704 20.610010 -5.432265
v 4.864338 21.194132 -5.432265
v -4.364936 6.371308 -5.085968
v -4.893300 6.955427 -5.085968
v 5.392704 20.610010 -5.085972
v 4.864338 21.194132 -5.085972
v 4.701179 6.371308 6.557387
v 5.229543 6.955427 6.557387
v -5.056461 20.610010 6.557387
v -4.528096 21.194132 6.557387
v 4.701179 6.371308 6.211095
v 5.229543 6.955427 6.211095
v -5.056461 20.610010 6.211096
v -4.528096 21.194132 6.211096
v -4.364936 6.371308 6.214891
v -4.893300 6.955427 6.214891
v 5.392704 20.610010 6.214886
v 4.864338 21.194132 6.214886
v -4.364936 6.371308 6.561183
v -4.893300 6.955427 6.561183
v 5.392704 20.610010 6.561178
v 4.864338 21.194132 6.561178
v 5.277850 6.371308 5.501596
v 5.277850 6.955427 6.082603
v 5.277850 20.610010 -5.228224
v 5.277850 21.194132 -4.647217
v 5.591367 6.371308 5.501596
v 5.591367 6.955427 6.082603
v 5.591367 20.610010 -5.228224
v 5.591367 21.194132 -4.647217
v 5.587927 6.371308 -4.467801
v 5.587927 6.955427 -5.048807
v 5.587931 20.610010 6.262020
v 5.587931 21.194132 5.681013
v 5.274411 6.371308 -4.467801
v 5.274411 6.955427 -5.048807
v 5.274414 20.610010 6.262020
v 5.274414 21.194132 5.681013
v 0.151498 18.881603 -2.977128
v 0.151498 -24.434105 -4.103570
v 0.825448 18.881603 -2.910750
v 1.045206 -24.434105 -4.015548
v 1.473499 18.881603 -2.714165
v 1.904570 -24.434105 -3.754863
v 2.070746 18.881603 -2.394931
v 2.696563 -24.434105 -3.331533
v 2.594237 18.881603 -1.965312
v 3.390752 -24.434105 -2.761828
v 3.023855 18.881603 -1.441821
v 3.960459 -24.434105 -2.067639
v 3.343091 18.881603 -0.844574
v 4.383787 -24.434105 -1.275645
v 3.539674 18.881603 -0.196524
v 4.644473 -24.434105 -0.416282
v 3.606053 18.881603 0.477426
v 4.732495 -24.434105 0.477426
v 3.539675 18.881603 1.151376
v 4.644473 -24.434105 1.371134
v 3.343091 18.881603 1.799426
v 4.383787 -24.434105 2.230497
v 3.023855 18.881603 2.396674
v 3.960459 -24.434105 3.022491
v 2.594238 18.881603 2.920166
v 3.390752 -24.434105 3.716681
v 2.070745 18.881603 3.349784
v 2.696563 -24.434105 4.286387
v 1.473498 18.881603 3.669019
v 1.904569 -24.434105 4.709716
v 0.825448 18.881603 3.865603
v 1.045205 -24.434105 4.970401
v 0.151497 18.881603 3.931981
v 0.151497 -24.434105 5.058423
v -0.522453 18.881603 3.865602
v -0.742212 -24.434105 4.970401
v -1.170504 18.881603 3.669018
v -1.601575 -24.434105 4.709715
v -1.767751 18.881603 3.349782
v -2.393569 -24.434105 4.286385
v -2.291243 18.881603 2.920163
v -3.087758 -24.434105 3.716679
v -2.720860 18.881603 2.396672
v -3.657463 -24.434105 3.022489
v -3.040095 18.881603 1.799425
v -4.080792 -24.434105 2.230495
v -3.236678 18.881603 1.151374
v -4.341477 -24.434105 1.371131
v -3.303056 18.881603 0.477423
v -4.429499 -24.434105 0.477422
v -3.236677 18.881603 -0.196527
v -4.341475 -24.434105 -0.416287
v -3.040092 18.881603 -0.844578
v -4.080789 -24.434105 -1.275650
v -2.720856 18.881603 -1.441825
v -3.657459 -24.434105 -2.067644
v -2.291237 18.881603 -1.965315
v -3.087752 -24.434105 -2.761832
v -1.767745 18.881603 -2.394933
v -2.393562 -24.434105 -3.331537
v -1.170498 18.881603 -2.714167
v -1.601567 -24.434105 -3.754865
v -0.522446 18.881603 -2.910751
v -0.742203 -24.434105 -4.015549
v 0.151498 17.806009 -4.103570
v 1.045206 17.806009 -4.015548
v 1.904570 17.806009 -3.754863
v 2.696563 17.806009 -3.331533
v 3.390752 17.806009 -2.761828
v 3.960459 17.806009 -2.067639
v 4.383787 17.806009 -1.275645
v 4.644473 17.806009 -0.416282
v 4.732495 17.806009 0.477426
v 4.644473 17.806009 1.371134
v 4.383787 17.806009 2.230497
v 3.960459 17.806009 3.022491
v 3.390752 17.806009 3.716681
v 2.696563 17.806009 4.286387
v 1.904569 17.806009 4.709716
v 1.045205 17.806009 4.970401
v 0.151497 17.806009 5.058423
v -0.742212 17.806009 4.970401
v -1.601575 17.806009 4.709715
v -2.393569 17.806009 4.286385
v -3.087758 17.806009 3.716679
v -3.657463 17.806009 3.022489
v -4.080792 17.806009 2.230495
v -4.341477 17.806009 1.371131
v -4.429499 17.806009 0.477422
v -4.341475 17.806009 -0.416287
v -4.080789 17.806009 -1.275650
v -3.657459 17.806009 -2.067644
v -3.087752 17.806009 -2.761832
v -2.393562 17.806009 -3.331537
v -1.601567 17.806009 -3.754865
v -0.742203 17.806009 -4.015549
v -6.317100 -24.632288 7.218417
v -6.317100 22.281578 7.218417
v -6.317100 -24.632288 5.689041
v -6.317100 22.281578 5.689041
v -4.787724 -24.632288 7.218417
v -4.787724 22.281578 7.218417
v -4.787724 -24.632288 5.689041
v -4.787724 22.281578 5.689041
v 4.944357 -24.632288 -4.888517
v 4.944357 22.281578 -4.888517
v 4.944357 -24.632288 -6.417894
v 4.944357 22.281578 -6.417894
v 6.473734 -24.632288 -4.888517
v 6.473734 22.281578 -4.888517
v 6.473734 -24.632288 -6.417894
v 6.473734 22.281578 -6.417894
v 4.944357 21.644083 -4.888517
v 4.944357 21.644083 -6.417894
v 6.473734 21.644083 -6.417894
v 6.473734 21.644083 -4.888517
v -6.287571 21.644083 -4.888517
v -6.287571 22.281578 -4.888517
v -6.287571 22.281578 -6.417894
v -6.287571 21.644083 -6.417894
v 4.944357 21.644083 7.201356
v 4.944357 22.281578 7.201356
v -6.287571 21.644083 7.201356
v -6.287571 22.281578 7.201356
v 6.415917 21.644083 -4.888517
v 6.415917 22.281578 -4.888517
v 6.415917 21.644083 7.201356
v 6.415917 22.281578 7.201356
v 4.944357 22.589003 -4.888517
v 4.944357 22.589003 -6.417894
v 6.473734 22.589003 -6.417894
v 6.473734 22.589003 -4.888517
v -6.287571 22.589003 -4.888517
v -6.287571 22.589003 -6.417894
v 4.944357 22.589003 7.201356
v -6.287571 22.589003 7.201356
v 6.415917 22.589003 -4.888517
v 6.415917 22.589003 7.201356
v 4.944357 -24.632288 7.218417
v 4.944357 22.281578 7.218417
v 4.944357 -24.632288 5.689041
v 4.944357 22.281578 5.689041
v 6.473734 -24.632288 7.218417
v 6.473734 22.281578 7.218417
v 6.473734 -24.632288 5.689041
v 6.473734 22.281578 5.689041
vn -1.0000 -0.0000 -0.0000
vn -0.0000 -0.0000 -1.0000
vn 1.0000 -0.0000 -0.0000
vn -0.0000 -0.0000 1.0000
vn -0.0000 -1.0000 -0.0000
vn -0.0000 1.0000 -0.0000
vn -0.0000 0.7052 -0.7090
vn -0.0000 -0.7052 0.7090
vn -0.0000 -0.6018 -0.7986
vn -0.0000 0.6018 0.7986
vn -0.0000 0.7052 0.7090
vn -0.0000 -0.7052 -0.7090
vn -0.0000 -0.6018 0.7986
vn -0.0000 0.6018 -0.7986
vn -0.7416 0.6708 -0.0000
vn 0.7416 -0.6708 -0.0000
vn -0.8249 -0.5653 -0.0000
vn 0.8249 0.5653 -0.0000
vn 0.7416 0.6708 -0.0000
vn -0.7416 -0.6708 -0.0000
vn 0.8249 -0.5653 -0.0000
vn -0.8249 0.5653 -0.0000
vn -0.0000 -0.3847 0.9230
vn -0.0000 0.6857 0.7279
vn -0.1420 0.6857 0.7139
vn -0.1801 -0.3847 0.9053
vn -0.2785 0.6857 0.6725
vn -0.3532 -0.3847 0.8528
vn -0.4044 0.6857 0.6052
vn -0.5128 -0.3847 0.7675
vn -0.5147 0.6857 0.5147
vn -0.6527 -0.3847 0.6527
vn -0.6052 0.6857 0.4044
vn -0.7675 -0.3847 0.5128
vn -0.6725 0.6857 0.2785
vn -0.8528 -0.3847 0.3532
vn -0.7139 0.6857 0.1420
vn -0.9053 -0.3847 0.1801
vn -0.7279 0.6857 -0.0000
vn -0.9230 -0.3847 -0.0000
vn -0.7139 0.6857 -0.1420
vn -0.9053 -0.3847 -0.1801
vn -0.6725 0.6857 -0.2785
vn -0.8528 -0.3847 -0.3532
vn -0.6052 0.6857 -0.4044
vn -0.7675 -0.3847 -0.5128
vn -0.5147 0.6857 -0.5147
vn -0.6527 -0.3847 -0.6527
vn -0.4044 0.6857 -0.6052
vn -0.5128 -0.3847 -0.7675
vn -0.2785 0.6857 -0.6725
vn -0.3532 -0.3847 -0.8528
vn -0.1420 0.6857 -0.7139
vn -0.1801 -0.3847 -0.9053
vn -0.0000 0.6857 -0.7279
vn -0.0000 -0.3847 -0.9230
vn 0.1420 0.6857 -0.7139
vn 0.1801 -0.3847 -0.9053
vn 0.2785 0.6857 -0.6725
vn 0.3532 -0.3847 -0.8528
vn 0.4044 0.6857 -0.6052
vn 0.5128 -0.3847 -0.7675
vn 0.5147 0.6857 -0.5147
vn 0.6527 -0.3847 -0.6527
vn 0.6052 0.6857 -0.4044
vn 0.7675 -0.3847 -0.5128
vn 0.6725 0.6857 -0.2785
vn 0.8528 -0.3847 -0.3532
vn 0.7139 0.6857 -0.1420
vn 0.9053 -0.3847 -0.1801
vn 0.7279 0.6857 -0.0000
vn 0.9230 -0.3847 -0.0000
vn 0.7139 0.6857 0.1420
vn 0.9053 -0.3847 0.1801
vn 0.6725 0.6857 0.2785
vn 0.8528 -0.3847 0.3532
vn 0.6052 0.6857 0.4044
vn 0.7675 -0.3847 0.5128
vn 0.5147 0.6857 0.5147
vn 0.6527 -0.3847 0.6527
vn 0.4044 0.6857 0.6052
vn 0.5128 -0.3847 0.7675
vn 0.2785 0.6857 0.6725
vn 0.3532 -0.3847 0.8528
vn 0.1420 0.6857 0.7139
vn 0.1801 -0.3847 0.9053
vn -0.0000 -0.9201 0.3917
vn -0.0764 -0.9201 0.3841
vn -0.1499 -0.9201 0.3619
vn -0.2176 -0.9201 0.3257
vn -0.2770 -0.9201 0.2770
vn -0.3257 -0.9201 0.2176
vn -0.3619 -0.9201 0.1499
vn -0.3841 -0.9201 0.0764
vn -0.3917 -0.9201 -0.0000
vn -0.3841 -0.9201 -0.0764
vn -0.3619 -0.9201 -0.1499
vn -0.3257 -0.9201 -0.2176
vn -0.2770 -0.9201 -0.2770
vn -0.2176 -0.9201 -0.3257
vn -0.1499 -0.9201 -0.3619
vn -0.0764 -0.9201 -0.3841
vn -0.0000 -0.9201 -0.3917
vn 0.0764 -0.9201 -0.3841
vn 0.1499 -0.9201 -0.3619
vn 0.2176 -0.9201 -0.3257
vn 0.2770 -0.9201 -0.2770
vn 0.3257 -0.9201 -0.2176
vn 0.3619 -0.9201 -0.1499
vn 0.3841 -0.9201 -0.0764
vn 0.3917 -0.9201 -0.0000
vn 0.3841 -0.9201 0.0764
vn 0.3619 -0.9201 0.1499
vn 0.3257 -0.9201 0.2176
vn 0.2770 -0.9201 0.2770
vn 0.2176 -0.9201 0.3257
vn 0.1499 -0.9201 0.3619
vn 0.0764 -0.9201 0.3841
vt 0.375000 0.000000
vt 0.625000 0.000000
vt 0.625000 0.250000
vt 0.375000 0.250000
vt 0.625000 0.500000
vt 0.375000 0.500000
vt 0.625000 0.750000
vt 0.375000 0.750000
vt 0.625000 1.000000
vt 0.375000 1.000000
vt 0.125000 0.500000
vt 0.125000 0.750000
vt 0.875000 0.500000
vt 0.875000 0.750000
vt 0.606839 0.250000
vt 0.606839 0.500000
vt 0.606839 0.750000
vt 0.606839 1.000000
vt 0.390014 0.750000
vt 0.390014 1.000000
vt 0.390014 0.500000
vt 0.390014 0.250000
vt 0.390014 0.000000
vt 0.606839 0.000000
vt 1.000000 0.500000
vt 1.000000 1.000000
vt 0.968750 1.000000
vt 0.968750 0.500000
vt 0.937500 1.000000
vt 0.937500 0.500000
vt 0.906250 1.000000
vt 0.906250 0.500000
vt 0.875000 1.000000
vt 0.843750 1.000000
vt 0.843750 0.500000
vt 0.812500 1.000000
vt 0.812500 0.500000
vt 0.781250 1.000000
vt 0.781250 0.500000
vt 0.750000 1.000000
vt 0.750000 0.500000
vt 0.718750 1.000000
vt 0.718750 0.500000
vt 0.687500 1.000000
vt 0.687500 0.500000
vt 0.656250 1.000000
vt 0.656250 0.500000
vt 0.593750 1.000000
vt 0.593750 0.500000
vt 0.562500 1.000000
vt 0.562500 0.500000
vt 0.531250 1.000000
vt 0.531250 0.500000
vt 0.500000 1.000000
vt 0.500000 0.500000
vt 0.468750 1.000000
vt 0.468750 0.500000
vt 0.437500 1.000000
vt 0.437500 0.500000
vt 0.406250 1.000000
vt 0.406250 0.500000
vt 0.343750 1.000000
vt 0.343750 0.500000
vt 0.312500 1.000000
vt 0.312500 0.500000
vt 0.281250 1.000000
vt 0.281250 0.500000
vt 0.250000 1.000000
vt 0.250000 0.500000
vt 0.218750 1.000000
vt 0.218750 0.500000
vt 0.187500 1.000000
vt 0.187500 0.500000
vt 0.156250 1.000000
vt 0.156250 0.500000
vt 0.125000 1.000000
vt 0.093750 1.000000
vt 0.093750 0.500000
vt 0.062500 1.000000
vt 0.062500 0.500000
vt 0.296822 0.485388
vt 0.250000 0.490000
vt 0.203179 0.485389
vt 0.158156 0.471731
vt 0.116663 0.449553
vt 0.080295 0.419706
vt 0.050447 0.383337
vt 0.028269 0.341844
vt 0.014612 0.296822
vt 0.010000 0.250000
vt 0.014611 0.203179
vt 0.028269 0.158156
vt 0.050447 0.116663
vt 0.080294 0.080294
vt 0.116663 0.050447
vt 0.158156 0.028269
vt 0.203178 0.014612
vt 0.250000 0.010000
vt 0.296822 0.014612
vt 0.341844 0.028269
vt 0.383337 0.050447
vt 0.419706 0.080294
vt 0.449553 0.116663
vt 0.471731 0.158156
vt 0.485388 0.203178
vt 0.490000 0.250000
vt 0.485388 0.296822
vt 0.471731 0.341844
vt 0.449553 0.383337
vt 0.419706 0.419706
vt 0.383337 0.449553
vt 0.341844 0.471731
vt 0.031250 1.000000
vt 0.031250 0.500000
vt 0.000000 1.000000
vt 0.000000 0.500000
vt 0.750000 0.430986
vt 0.785308 0.427508
vt 0.819260 0.417209
vt 0.850550 0.400484
vt 0.877976 0.377976
vt 0.900484 0.350550
vt 0.917209 0.319260
vt 0.927508 0.285309
vt 0.930985 0.250000
vt 0.927508 0.214692
vt 0.917208 0.180740
vt 0.900484 0.149450
vt 0.877976 0.122024
vt 0.850550 0.099516
vt 0.819260 0.082791
vt 0.785308 0.072492
vt 0.750000 0.069015
vt 0.714691 0.072492
vt 0.680740 0.082792
vt 0.649450 0.099516
vt 0.622024 0.122024
vt 0.599516 0.149450
vt 0.582791 0.180740
vt 0.572492 0.214692
vt 0.569015 0.250000
vt 0.572492 0.285309
vt 0.582791 0.319260
vt 0.599516 0.350550
vt 0.622024 0.377976
vt 0.649450 0.400484
vt 0.680740 0.417209
vt 0.714692 0.427508
vt 0.750000 0.490000
vt 0.796822 0.485388
vt 0.841844 0.471731
vt 0.883337 0.449553
vt 0.919706 0.419706
vt 0.949553 0.383337
vt 0.971731 0.341844
vt 0.985388 0.296822
vt 0.990000 0.250000
vt 0.985388 0.203178
vt 0.971731 0.158156
vt 0.949553 0.116663
vt 0.919706 0.080294
vt 0.883337 0.050447
vt 0.841844 0.028269
vt 0.796822 0.014612
vt 0.750000 0.010000
vt 0.703178 0.014612
vt 0.658156 0.028269
vt 0.616663 0.050447
vt 0.580294 0.080294
vt 0.550447 0.116663
vt 0.528269 0.158156
vt 0.514611 0.203179
vt 0.510000 0.250000
vt 0.514612 0.296822
vt 0.528269 0.341844
vt 0.550447 0.383337
vt 0.580295 0.419706
vt 0.616663 0.449553
vt 0.658156 0.471731
vt 0.703179 0.485389
vt 0.621603 0.000000
vt 0.621603 0.250000
vt 0.621603 0.500000
vt 0.621603 0.750000
vt 0.621603 1.000000
s 0
f 1/1/1 2/2/1 4/3/1 3/4/1
f 3/4/2 4/3/2 8/5/2 7/6/2
f 7/6/3 8/5/3 6/7/3 5/8/3
f 5/8/4 6/7/4 2/9/4 1/10/4
f 3/11/5 7/6/5 5/8/5 1/12/5
f 8/5/6 4/13/6 2/14/6 6/7/6
f 10/14/6 12/13/6 23/13/6 22/14/6
f 28/15/5 32/15/5 44/15/5 42/15/5
f 19/16/3 16/5/3 14/7/3 20/17/3
f 20/17/4 14/7/4 10/9/4 17/18/4
f 11/11/5 15/6/5 13/8/5 9/12/5
f 16/5/6 12/13/6 10/14/6 14/7/6
f 67/19/4 20/17/4 17/18/4 68/20/4
f 66/21/3 19/16/3 20/17/3 67/19/3
f 65/22/2 18/15/2 19/16/2 66/21/2
f 68/23/1 17/24/1 18/15/1 65/22/1
f 23/3/6 24/15/6 28/15/6 27/3/6
f 12/3/3 18/15/3 102/15/3 101/3/3
f 17/18/4 10/9/4 22/9/4 21/18/4
f 18/15/5 17/24/5 21/24/5 24/15/5
f 25/18/4 26/9/4 30/9/4 29/18/4
f 21/18/6 22/9/6 26/9/6 25/18/6
f 24/15/6 21/24/6 25/24/6 28/15/6
f 22/14/6 23/13/6 27/13/6 26/14/6
f 29/24/1 30/2/1 31/3/1 32/15/1
f 29/24/1 32/15/1 36/15/1 35/24/1
f 26/14/6 27/13/6 31/13/6 30/14/6
f 18/15/1 12/3/1 37/3/1 39/15/1
f 34/15/5 33/24/5 35/24/5 36/15/5
f 28/15/3 25/24/3 33/24/3 34/15/3
f 32/15/2 28/15/2 34/15/2 36/15/2
f 25/18/4 29/18/4 35/18/4 33/18/4
f 44/15/1 52/15/1 59/15/1 55/15/1
f 44/15/1 43/3/1 51/3/1 52/15/1
f 19/16/5 18/15/5 39/15/5 40/16/5
f 32/15/1 31/3/1 43/3/1 44/15/1
f 12/13/6 16/5/6 38/5/6 37/13/6
f 16/5/3 19/16/3 40/16/3 38/5/3
f 31/13/6 27/13/6 41/13/6 43/13/6
f 27/3/3 28/15/3 42/15/3 41/3/3
f 47/15/2 45/3/2 46/5/2 48/16/2
f 49/3/2 50/15/2 52/15/2 51/3/2
f 39/15/1 37/3/1 45/3/1 47/15/1
f 48/16/3 40/16/3 54/16/3 58/16/3
f 49/13/6 41/13/6 61/13/6 63/13/6
f 38/5/3 40/16/3 48/16/3 46/5/3
f 37/13/6 38/5/6 46/5/6 45/13/6
f 43/13/6 41/13/6 49/13/6 51/13/6
f 54/16/5 53/15/5 57/15/5 58/16/5
f 56/15/5 55/15/5 59/15/5 60/15/5
f 40/16/4 39/15/4 53/15/4 54/16/4
f 47/15/2 48/16/2 58/16/2 57/15/2
f 42/15/4 44/15/4 55/15/4 56/15/4
f 39/15/1 47/15/1 57/15/1 53/15/1
f 52/15/2 50/15/2 60/15/2 59/15/2
f 50/15/3 42/15/3 56/15/3 60/15/3
f 61/3/3 62/15/3 64/15/3 63/3/3
f 41/3/4 42/15/4 62/15/4 61/3/4
f 50/15/2 49/3/2 63/3/2 64/15/2
f 42/15/5 50/15/5 64/15/5 62/15/5
f 68/23/6 65/22/6 87/22/6 88/23/6
f 66/21/3 15/6/3 71/6/3 72/21/3
f 15/6/3 66/21/3 67/19/3 13/8/3
f 13/8/4 67/19/4 68/20/4 9/10/4
f 70/4/4 69/22/4 77/22/4 78/4/4
f 15/6/5 11/11/5 70/11/5 71/6/5
f 11/4/1 65/22/1 69/22/1 70/4/1
f 65/22/6 66/21/6 72/21/6 69/22/6
f 74/4/2 73/22/2 76/21/2 75/6/2
f 69/22/6 72/21/6 76/21/6 73/22/6
f 71/6/5 70/11/5 74/11/5 75/6/5
f 72/21/3 71/6/3 75/6/3 76/21/3
f 77/22/6 79/22/6 83/22/6 81/22/6
f 69/22/6 73/22/6 79/22/6 77/22/6
f 73/22/2 74/4/2 80/4/2 79/22/2
f 74/11/5 70/11/5 78/11/5 80/11/5
f 82/4/1 81/22/1 83/22/1 84/4/1
f 78/4/4 77/22/4 81/22/4 82/4/4
f 80/11/5 78/11/5 82/11/5 84/11/5
f 79/22/2 80/4/2 84/4/2 83/22/2
f 87/22/3 85/4/3 94/4/3 93/22/3
f 11/11/5 9/12/5 86/12/5 85/11/5
f 9/10/4 68/20/4 88/20/4 86/10/4
f 90/1/1 92/23/1 91/22/1 89/4/1
f 86/10/4 88/20/4 92/20/4 90/10/4
f 85/11/5 86/12/5 90/12/5 89/11/5
f 88/23/6 87/22/6 91/22/6 92/23/6
f 93/22/2 94/4/2 96/4/2 95/22/2
f 85/11/5 89/11/5 96/11/5 94/11/5
f 91/22/6 87/22/6 93/22/6 95/22/6
f 89/4/1 91/22/1 95/22/1 96/4/1
f 97/22/2 98/4/2 100/4/2 99/22/2
f 65/22/3 11/4/3 98/4/3 97/22/3
f 85/4/1 87/22/1 99/22/1 100/4/1
f 101/3/2 102/15/2 104/15/2 103/3/2
f 24/15/1 23/3/1 103/3/1 104/15/1
f 105/1/1 106/2/1 108/3/1 107/4/1
f 107/4/7 108/3/7 112/5/7 111/6/7
f 111/6/3 112/5/3 110/7/3 109/8/3
f 109/8/8 110/7/8 106/9/8 105/10/8
f 107/11/9 111/6/9 109/8/9 105/12/9
f 112/5/10 108/13/10 106/14/10 110/7/10
f 113/1/3 114/2/3 116/3/3 115/4/3
f 115/4/11 116/3/11 120/5/11 119/6/11
f 119/6/1 120/5/1 118/7/1 117/8/1
f 117/8/12 118/7/12 114/9/12 113/10/12
f 115/11/13 119/6/13 117/8/13 113/12/13
f 120/5/14 116/13/14 114/14/14 118/7/14
f 121/1/4 122/2/4 124/3/4 123/4/4
f 123/4/15 124/3/15 128/5/15 127/6/15
f 127/6/2 128/5/2 126/7/2 125/8/2
f 125/8/16 126/7/16 122/9/16 121/10/16
f 123/11/17 127/6/17 125/8/17 121/12/17
f 128/5/18 124/13/18 122/14/18 126/7/18
f 129/1/2 130/2/2 132/3/2 131/4/2
f 131/4/19 132/3/19 136/5/19 135/6/19
f 135/6/4 136/5/4 134/7/4 133/8/4
f 133/8/20 134/7/20 130/9/20 129/10/20
f 131/11/21 135/6/21 133/8/21 129/12/21
f 136/5/22 132/13/22 130/14/22 134/7/22
f 137/1/4 138/2/4 140/3/4 139/4/4
f 139/4/15 140/3/15 144/5/15 143/6/15
f 143/6/2 144/5/2 142/7/2 141/8/2
f 141/8/16 142/7/16 138/9/16 137/10/16
f 139/11/17 143/6/17 141/8/17 137/12/17
f 144/5/18 140/13/18 138/14/18 142/7/18
f 145/1/2 146/2/2 148/3/2 147/4/2
f 147/4/19 148/3/19 152/5/19 151/6/19
f 151/6/4 152/5/4 150/7/4 149/8/4
f 149/8/20 150/7/20 146/9/20 145/10/20
f 147/11/21 151/6/21 149/8/21 145/12/21
f 152/5/22 148/13/22 146/14/22 150/7/22
f 153/1/1 154/2/1 156/3/1 155/4/1
f 155/4/7 156/3/7 160/5/7 159/6/7
f 159/6/3 160/5/3 158/7/3 157/8/3
f 157/8/8 158/7/8 154/9/8 153/10/8
f 155/11/9 159/6/9 157/8/9 153/12/9
f 160/5/10 156/13/10 154/14/10 158/7/10
f 161/1/3 162/2/3 164/3/3 163/4/3
f 163/4/11 164/3/11 168/5/11 167/6/11
f 167/6/1 168/5/1 166/7/1 165/8/1
f 165/8/12 166/7/12 162/9/12 161/10/12
f 163/11/13 167/6/13 165/8/13 161/12/13
f 168/5/14 164/13/14 162/14/14 166/7/14
f 170/14/6 172/13/6 183/13/6 182/14/6
f 188/15/5 192/15/5 204/15/5 202/15/5
f 179/16/3 176/5/3 174/7/3 180/17/3
f 180/17/4 174/7/4 170/9/4 177/18/4
f 171/11/5 175/6/5 173/8/5 169/12/5
f 176/5/6 172/13/6 170/14/6 174/7/6
f 227/19/4 180/17/4 177/18/4 228/20/4
f 226/21/3 179/16/3 180/17/3 227/19/3
f 225/22/2 178/15/2 179/16/2 226/21/2
f 228/23/1 177/24/1 178/15/1 225/22/1
f 183/3/6 184/15/6 188/15/6 187/3/6
f 172/3/3 178/15/3 262/15/3 261/3/3
f 177/18/4 170/9/4 182/9/4 181/18/4
f 178/15/5 177/24/5 181/24/5 184/15/5
f 185/18/4 186/9/4 190/9/4 189/18/4
f 181/18/6 182/9/6 186/9/6 185/18/6
f 184/15/6 181/24/6 185/24/6 188/15/6
f 182/14/6 183/13/6 187/13/6 186/14/6
f 189/24/1 190/2/1 191/3/1 192/15/1
f 189/24/1 192/15/1 196/15/1 195/24/1
f 186/14/6 187/13/6 191/13/6 190/14/6
f 178/15/1 172/3/1 197/3/1 199/15/1
f 194/15/5 193/24/5 195/24/5 196/15/5
f 188/15/3 185/24/3 193/24/3 194/15/3
f 192/15/2 188/15/2 194/15/2 196/15/2
f 185/18/4 189/18/4 195/18/4 193/18/4
f 204/15/1 212/15/1 219/15/1 215/15/1
f 204/15/1 203/3/1 211/3/1 212/15/1
f 179/16/5 178/15/5 199/15/5 200/16/5
f 192/15/1 191/3/1 203/3/1 204/15/1
f 172/13/6 176/5/6 198/5/6 197/13/6
f 176/5/3 179/16/3 200/16/3 198/5/3
f 191/13/6 187/13/6 201/13/6 203/13/6
f 187/3/3 188/15/3 202/15/3 201/3/3
f 207/15/2 205/3/2 206/5/2 208/16/2
f 209/3/2 210/15/2 212/15/2 211/3/2
f 199/15/1 197/3/1 205/3/1 207/15/1
f 208/16/3 200/16/3 214/16/3 218/16/3
f 209/13/6 201/13/6 221/13/6 223/13/6
f 198/5/3 200/16/3 208/16/3 206/5/3
f 197/13/6 198/5/6 206/5/6 205/13/6
f 203/13/6 201/13/6 209/13/6 211/13/6
f 214/16/5 213/15/5 217/15/5 218/16/5
f 216/15/5 215/15/5 219/15/5 220/15/5
f 200/16/4 199/15/4 213/15/4 214/16/4
f 207/15/2 208/16/2 218/16/2 217/15/2
f 202/15/4 204/15/4 215/15/4 216/15/4
f 199/15/1 207/15/1 217/15/1 213/15/1
f 212/15/2 210/15/2 220/15/2 219/15/2
f 210/15/3 202/15/3 216/15/3 220/15/3
f 221/3/3 222/15/3 224/15/3 223/3/3
f 201/3/4 202/15/4 222/15/4 221/3/4
f 210/15/2 209/3/2 223/3/2 224/15/2
f 202/15/5 210/15/5 224/15/5 222/15/5
f 228/23/6 225/22/6 247/22/6 248/23/6
f 226/21/3 175/6/3 231/6/3 232/21/3
f 175/6/3 226/21/3 227/19/3 173/8/3
f 173/8/4 227/19/4 228/20/4 169/10/4
f 230/4/4 229/22/4 237/22/4 238/4/4
f 175/6/5 171/11/5 230/11/5 231/6/5
f 171/4/1 225/22/1 229/22/1 230/4/1
f 225/22/6 226/21/6 232/21/6 229/22/6
f 234/4/2 233/22/2 236/21/2 235/6/2
f 229/22/6 232/21/6 236/21/6 233/22/6
f 231/6/5 230/11/5 234/11/5 235/6/5
f 232/21/3 231/6/3 235/6/3 236/21/3
f 237/22/6 239/22/6 243/22/6 241/22/6
f 229/22/6 233/22/6 239/22/6 237/22/6
f 233/22/2 234/4/2 240/4/2 239/22/2
f 234/11/5 230/11/5 238/11/5 240/11/5
f 242/4/1 241/22/1 243/22/1 244/4/1
f 238/4/4 237/22/4 241/22/4 242/4/4
f 240/11/5 238/11/5 242/11/5 244/11/5
f 239/22/2 240/4/2 244/4/2 243/22/2
f 247/22/3 245/4/3 254/4/3 253/22/3
f 171/11/5 169/12/5 246/12/5 245/11/5
f 169/10/4 228/20/4 248/20/4 246/10/4
f 250/1/1 252/23/1 251/22/1 249/4/1
f 246/10/4 248/20/4 252/20/4 250/10/4
f 245/11/5 246/12/5 250/12/5 249/11/5
f 248/23/6 247/22/6 251/22/6 252/23/6
f 253/22/2 254/4/2 256/4/2 255/22/2
f 245/11/5 249/11/5 256/11/5 254/11/5
f 251/22/6 247/22/6 253/22/6 255/22/6
f 249/4/1 251/22/1 255/22/1 256/4/1
f 257/22/2 258/4/2 260/4/2 259/22/2
f 225/22/3 171/4/3 258/4/3 257/22/3
f 245/4/1 247/22/1 259/22/1 260/4/1
f 261/3/2 262/15/2 264/15/2 263/3/2
f 184/15/1 183/3/1 263/3/1 264/15/1
f 265/1/1 266/2/1 268/3/1 267/4/1
f 267/4/7 268/3/7 272/5/7 271/6/7
f 271/6/3 272/5/3 270/7/3 269/8/3
f 269/8/8 270/7/8 266/9/8 265/10/8
f 267/11/9 271/6/9 269/8/9 265/12/9
f 272/5/10 268/13/10 266/14/10 270/7/10
f 273/1/3 274/2/3 276/3/3 275/4/3
f 275/4/11 276/3/11 280/5/11 279/6/11
f 279/6/1 280/5/1 278/7/1 277/8/1
f 277/8/12 278/7/12 274/9/12 273/10/12
f 275/11/13 279/6/13 277/8/13 273/12/13
f 280/5/14 276/13/14 274/14/14 278/7/14
f 281/1/4 282/2/4 284/3/4 283/4/4
f 283/4/15 284/3/15 288/5/15 287/6/15
f 287/6/2 288/5/2 286/7/2 285/8/2
f 285/8/16 286/7/16 282/9/16 281/10/16
f 283/11/17 287/6/17 285/8/17 281/12/17
f 288/5/18 284/13/18 282/14/18 286/7/18
f 289/1/2 290/2/2 292/3/2 291/4/2
f 291/4/19 292/3/19 296/5/19 295/6/19
f 295/6/4 296/5/4 294/7/4 293/8/4
f 293/8/20 294/7/20 290/9/20 289/10/20
f 291/11/21 295/6/21 293/8/21 289/12/21
f 296/5/22 292/13/22 290/14/22 294/7/22
f 297/1/4 298/2/4 300/3/4 299/4/4
f 299/4/15 300/3/15 304/5/15 303/6/15
f 303/6/2 304/5/2 302/7/2 301/8/2
f 301/8/16 302/7/16 298/9/16 297/10/16
f 299/11/17 303/6/17 301/8/17 297/12/17
f 304/5/18 300/13/18 298/14/18 302/7/18
f 305/1/2 306/2/2 308/3/2 307/4/2
f 307/4/19 308/3/19 312/5/19 311/6/19
f 311/6/4 312/5/4 310/7/4 309/8/4
f 309/8/20 310/7/20 306/9/20 305/10/20
f 307/11/21 311/6/21 309/8/21 305/12/21
f 312/5/22 308/13/22 306/14/22 310/7/22
f 313/1/1 314/2/1 316/3/1 315/4/1
f 315/4/7 316/3/7 320/5/7 319/6/7
f 319/6/3 320/5/3 318/7/3 317/8/3
f 317/8/8 318/7/8 314/9/8 313/10/8
f 315/11/9 319/6/9 317/8/9 313/12/9
f 320/5/10 316/13/10 314/14/10 318/7/10
f 321/1/3 322/2/3 324/3/3 323/4/3
f 323/4/11 324/3/11 328/5/11 327/6/11
f 327/6/1 328/5/1 326/7/1 325/8/1
f 325/8/12 326/7/12 322/9/12 321/10/12
f 323/11/13 327/6/13 325/8/13 321/12/13
f 328/5/14 324/13/14 322/14/14 326/7/14
f 330/14/6 332/13/6 343/13/6 342/14/6
f 348/15/5 352/15/5 364/15/5 362/15/5
f 339/16/3 336/5/3 334/7/3 340/17/3
f 340/17/4 334/7/4 330/9/4 337/18/4
f 331/11/5 335/6/5 333/8/5 329/12/5
f 336/5/6 332/13/6 330/14/6 334/7/6
f 387/19/4 340/17/4 337/18/4 388/20/4
f 386/21/3 339/16/3 340/17/3 387/19/3
f 385/22/2 338/15/2 339/16/2 386/21/2
f 388/23/1 337/24/1 338/15/1 385/22/1
f 343/3/6 344/15/6 348/15/6 347/3/6
f 332/3/3 338/15/3 422/15/3 421/3/3
f 337/18/4 330/9/4 342/9/4 341/18/4
f 338/15/5 337/24/5 341/24/5 344/15/5
f 345/18/4 346/9/4 350/9/4 349/18/4
f 341/18/6 342/9/6 346/9/6 345/18/6
f 344/15/6 341/24/6 345/24/6 348/15/6
f 342/14/6 343/13/6 347/13/6 346/14/6
f 349/24/1 350/2/1 351/3/1 352/15/1
f 349/24/1 352/15/1 356/15/1 355/24/1
f 346/14/6 347/13/6 351/13/6 350/14/6
f 338/15/1 332/3/1 357/3/1 359/15/1
f 354/15/5 353/24/5 355/24/5 356/15/5
f 348/15/3 345/24/3 353/24/3 354/15/3
f 352/15/2 348/15/2 354/15/2 356/15/2
f 345/18/4 349/18/4 355/18/4 353/18/4
f 364/15/1 372/15/1 379/15/1 375/15/1
f 364/15/1 363/3/1 371/3/1 372/15/1
f 339/16/5 338/15/5 359/15/5 360/16/5
f 352/15/1 351/3/1 363/3/1 364/15/1
f 332/13/6 336/5/6 358/5/6 357/13/6
f 336/5/3 339/16/3 360/16/3 358/5/3
f 351/13/6 347/13/6 361/13/6 363/13/6
f 347/3/3 348/15/3 362/15/3 361/3/3
f 367/15/2 365/3/2 366/5/2 368/16/2
f 369/3/2 370/15/2 372/15/2 371/3/2
f 359/15/1 357/3/1 365/3/1 367/15/1
f 368/16/3 360/16/3 374/16/3 378/16/3
f 369/13/6 361/13/6 381/13/6 383/13/6
f 358/5/3 360/16/3 368/16/3 366/5/3
f 357/13/6 358/5/6 366/5/6 365/13/6
f 363/13/6 361/13/6 369/13/6 371/13/6
f 374/16/5 373/15/5 377/15/5 378/16/5
f 376/15/5 375/15/5 379/15/5 380/15/5
f 360/16/4 359/15/4 373/15/4 374/16/4
f 367/15/2 368/16/2 378/16/2 377/15/2
f 362/15/4 364/15/4 375/15/4 376/15/4
f 359/15/1 367/15/1 377/15/1 373/15/1
f 372/15/2 370/15/2 380/15/2 379/15/2
f 370/15/3 362/15/3 376/15/3 380/15/3
f 381/3/3 382/15/3 384/15/3 383/3/3
f 361/3/4 362/15/4 382/15/4 381/3/4
f 370/15/2 369/3/2 383/3/2 384/15/2
f 362/15/5 370/15/5 384/15/5 382/15/5
f 388/23/6 385/22/6 407/22/6 408/23/6
f 386/21/3 335/6/3 391/6/3 392/21/3
f 335/6/3 386/21/3 387/19/3 333/8/3
f 333/8/4 387/19/4 388/20/4 329/10/4
f 390/4/4 389/22/4 397/22/4 398/4/4
f 335/6/5 331/11/5 390/11/5 391/6/5
f 331/4/1 385/22/1 389/22/1 390/4/1
f 385/22/6 386/21/6 392/21/6 389/22/6
f 394/4/2 393/22/2 396/21/2 395/6/2
f 389/22/6 392/21/6 396/21/6 393/22/6
f 391/6/5 390/11/5 394/11/5 395/6/5
f 392/21/3 391/6/3 395/6/3 396/21/3
f 397/22/6 399/22/6 403/22/6 401/22/6
f 389/22/6 393/22/6 399/22/6 397/22/6
f 393/22/2 394/4/2 400/4/2 399/22/2
f 394/11/5 390/11/5 398/11/5 400/11/5
f 402/4/1 401/22/1 403/22/1 404/4/1
f 398/4/4 397/22/4 401/22/4 402/4/4
f 400/11/5 398/11/5 402/11/5 404/11/5
f 399/22/2 400/4/2 404/4/2 403/22/2
f 407/22/3 405/4/3 414/4/3 413/22/3
f 331/11/5 329/12/5 406/12/5 405/11/5
f 329/10/4 388/20/4 408/20/4 406/10/4
f 410/1/1 412/23/1 411/22/1 409/4/1
f 406/10/4 408/20/4 412/20/4 410/10/4
f 405/11/5 406/12/5 410/12/5 409/11/5
f 408/23/6 407/22/6 411/22/6 412/23/6
f 413/22/2 414/4/2 416/4/2 415/22/2
f 405/11/5 409/11/5 416/11/5 414/11/5
f 411/22/6 407/22/6 413/22/6 415/22/6
f 409/4/1 411/22/1 415/22/1 416/4/1
f 417/22/2 418/4/2 420/4/2 419/22/2
f 385/22/3 331/4/3 418/4/3 417/22/3
f 405/4/1 407/22/1 419/22/1 420/4/1
f 421/3/2 422/15/2 424/15/2 423/3/2
f 344/15/1 343/3/1 423/3/1 424/15/1
f 425/1/1 426/2/1 428/3/1 427/4/1
f 427/4/7 428/3/7 432/5/7 431/6/7
f 431/6/3 432/5/3 430/7/3 429/8/3
f 429/8/8 430/7/8 426/9/8 425/10/8
f 427/11/9 431/6/9 429/8/9 425/12/9
f 432/5/10 428/13/10 426/14/10 430/7/10
f 433/1/3 434/2/3 436/3/3 435/4/3
f 435/4/11 436/3/11 440/5/11 439/6/11
f 439/6/1 440/5/1 438/7/1 437/8/1
f 437/8/12 438/7/12 434/9/12 433/10/12
f 435/11/13 439/6/13 437/8/13 433/12/13
f 440/5/14 436/13/14 434/14/14 438/7/14
f 441/1/4 442/2/4 444/3/4 443/4/4
f 443/4/15 444/3/15 448/5/15 447/6/15
f 447/6/2 448/5/2 446/7/2 445/8/2
f 445/8/16 446/7/16 442/9/16 441/10/16
f 443/11/17 447/6/17 445/8/17 441/12/17
f 448/5/18 444/13/18 442/14/18 446/7/18
f 449/1/2 450/2/2 452/3/2 451/4/2
f 451/4/19 452/3/19 456/5/19 455/6/19
f 455/6/4 456/5/4 454/7/4 453/8/4
f 453/8/20 454/7/20 450/9/20 449/10/20
f 451/11/21 455/6/21 453/8/21 449/12/21
f 456/5/22 452/13/22 450/14/22 454/7/22
f 457/1/4 458/2/4 460/3/4 459/4/4
f 459/4/15 460/3/15 464/5/15 463/6/15
f 463/6/2 464/5/2 462/7/2 461/8/2
f 461/8/16 462/7/16 458/9/16 457/10/16
f 459/11/17 463/6/17 461/8/17 457/12/17
f 464/5/18 460/13/18 458/14/18 462/7/18
f 465/1/2 466/2/2 468/3/2 467/4/2
f 467/4/19 468/3/19 472/5/19 471/6/19
f 471/6/4 472/5/4 470/7/4 469/8/4
f 469/8/20 470/7/20 466/9/20 465/10/20
f 467/11/21 471/6/21 469/8/21 465/12/21
f 472/5/22 468/13/22 466/14/22 470/7/22
f 473/1/1 474/2/1 476/3/1 475/4/1
f 475/4/7 476/3/7 480/5/7 479/6/7
f 479/6/3 480/5/3 478/7/3 477/8/3
f 477/8/8 478/7/8 474/9/8 473/10/8
f 475/11/9 479/6/9 477/8/9 473/12/9
f 480/5/10 476/13/10 474/14/10 478/7/10
f 481/1/3 482/2/3 484/3/3 483/4/3
f 483/4/11 484/3/11 488/5/11 487/6/11
f 487/6/1 488/5/1 486/7/1 485/8/1
f 485/8/12 486/7/12 482/9/12 481/10/12
f 483/11/13 487/6/13 485/8/13 481/12/13
f 488/5/14 484/13/14 482/14/14 486/7/14
s 1
f 553/25/23 490/26/24 492/27/25 554/28/26
f 554/28/26 492/27/25 494/29/27 555/30/28
f 555/30/28 494/29/27 496/31/29 556/32/30
f 556/32/30 496/31/29 498/33/31 557/13/32
f 557/13/32 498/33/31 500/34/33 558/35/34
f 558/35/34 500/34/33 502/36/35 559/37/36
f 559/37/36 502/36/35 504/38/37 560/39/38
f 560/39/38 504/38/37 506/40/39 561/41/40
f 561/41/40 506/40/39 508/42/41 562/43/42
f 562/43/42 508/42/41 510/44/43 563/45/44
f 563/45/44 510/44/43 512/46/45 564/47/46
f 564/47/46 512/46/45 514/9/47 565/5/48
f 565/5/48 514/9/47 516/48/49 566/49/50
f 566/49/50 516/48/49 518/50/51 567/51/52
f 567/51/52 518/50/51 520/52/53 568/53/54
f 568/53/54 520/52/53 522/54/55 569/55/56
f 569/55/56 522/54/55 524/56/57 570/57/58
f 570/57/58 524/56/57 526/58/59 571/59/60
f 571/59/60 526/58/59 528/60/61 572/61/62
f 572/61/62 528/60/61 530/10/63 573/6/64
f 573/6/64 530/10/63 532/62/65 574/63/66
f 574/63/66 532/62/65 534/64/67 575/65/68
f 575/65/68 534/64/67 536/66/69 576/67/70
f 576/67/70 536/66/69 538/68/71 577/69/72
f 577/69/72 538/68/71 540/70/73 578/71/74
f 578/71/74 540/70/73 542/72/75 579/73/76
f 579/73/76 542/72/75 544/74/77 580/75/78
f 580/75/78 544/74/77 546/76/79 581/11/80
f 581/11/80 546/76/79 548/77/81 582/78/82
f 582/78/82 548/77/81 550/79/83 583/80/84
f 492/81/25 490/82/24 552/83/85 550/84/83 548/85/81 546/86/79 544/87/77 542/88/75 540/89/73 538/90/71 536/91/69 534/92/67 532/93/65 530/94/63 528/95/61 526/96/59 524/97/57 522/98/55 520/99/53 518/100/51 516/101/49 514/102/47 512/103/45 510/104/43 508/105/41 506/106/39 504/107/37 502/108/35 500/109/33 498/110/31 496/111/29 494/112/27
f 583/80/84 550/79/83 552/113/85 584/114/86
f 584/114/86 552/113/85 490/115/24 553/116/23
f 489/117/87 491/118/88 493/119/89 495/120/90 497/121/91 499/122/92 501/123/93 503/124/94 505/125/95 507/126/96 509/127/97 511/128/98 513/129/99 515/130/100 517/131/101 519/132/102 521/133/103 523/134/104 525/135/105 527/136/106 529/137/107 531/138/108 533/139/109 535/140/110 537/141/111 539/142/112 541/143/113 543/144/114 545/145/115 547/146/116 549/147/117 551/148/118
f 491/118/88 489/117/87 553/149/23 554/150/26
f 493/119/89 491/118/88 554/150/26 555/151/28
f 495/120/90 493/119/89 555/151/28 556/152/30
f 497/121/91 495/120/90 556/152/30 557/153/32
f 499/122/92 497/121/91 557/153/32 558/154/34
f 501/123/93 499/122/92 558/154/34 559/155/36
f 503/124/94 501/123/93 559/155/36 560/156/38
f 505/125/95 503/124/94 560/156/38 561/157/40
f 507/126/96 505/125/95 561/157/40 562/158/42
f 509/127/97 507/126/96 562/158/42 563/159/44
f 511/128/98 509/127/97 563/159/44 564/160/46
f 513/129/99 511/128/98 564/160/46 565/161/48
f 515/130/100 513/129/99 565/161/48 566/162/50
f 517/131/101 515/130/100 566/162/50 567/163/52
f 519/132/102 517/131/101 567/163/52 568/164/54
f 521/133/103 519/132/102 568/164/54 569/165/56
f 523/134/104 521/133/103 569/165/56 570/166/58
f 525/135/105 523/134/104 570/166/58 571/167/60
f 527/136/106 525/135/105 571/167/60 572/168/62
f 529/137/107 527/136/106 572/168/62 573/169/64
f 531/138/108 529/137/107 573/169/64 574/170/66
f 533/139/109 531/138/108 574/170/66 575/171/68
f 535/140/110 533/139/109 575/171/68 576/172/70
f 537/141/111 535/140/110 576/172/70 577/173/72
f 539/142/112 537/141/111 577/173/72 578/174/74
f 541/143/113 539/142/112 578/174/74 579/175/76
f 543/144/114 541/143/113 579/175/76 580/176/78
f 545/145/115 543/144/114 580/176/78 581/177/80
f 547/146/116 545/145/115 581/177/80 582/178/82
f 549/147/117 547/146/116 582/178/82 583/179/84
f 551/148/118 549/147/117 583/179/84 584/180/86
f 489/117/87 551/148/118 584/180/86 553/149/23
s 0
f 585/1/1 586/2/1 588/3/1 587/4/1
f 587/4/2 588/3/2 592/5/2 591/6/2
f 591/6/3 592/5/3 590/7/3 589/8/3
f 589/8/4 590/7/4 586/9/4 585/10/4
f 587/11/5 591/6/5 589/8/5 585/12/5
f 592/5/6 588/13/6 586/14/6 590/7/6
f 605/181/5 601/181/5 609/181/5 611/181/5
f 602/182/2 596/3/2 600/5/2 603/183/2
f 603/183/3 600/5/3 598/7/3 604/184/3
f 604/184/4 598/7/4 594/9/4 601/185/4
f 595/11/5 599/6/5 597/8/5 593/12/5
f 607/3/1 606/2/1 621/2/1 622/3/1
f 597/8/4 604/184/4 601/185/4 593/10/4
f 599/6/3 603/183/3 604/184/3 597/8/3
f 595/4/2 602/182/2 603/183/2 599/6/2
f 593/1/1 601/181/1 602/182/1 595/4/1
f 605/181/1 606/2/1 607/3/1 608/182/1
f 602/182/5 601/181/5 605/181/5 608/182/5
f 596/3/2 607/3/2 622/3/2 618/3/2
f 596/3/2 602/182/2 608/182/2 607/3/2
f 609/185/4 610/9/4 612/9/4 611/185/4
f 601/185/2 594/9/2 614/9/2 613/185/2
f 612/9/4 610/9/4 623/9/4 624/9/4
f 606/2/1 605/181/1 611/181/1 612/2/1
f 613/185/3 614/9/3 616/9/3 615/185/3
f 614/9/2 594/9/2 617/9/2 625/9/2
f 609/181/5 601/181/5 613/181/5 615/181/5
f 610/9/4 609/185/4 615/185/4 616/9/4
f 619/5/6 618/13/6 617/14/6 620/7/6
f 617/14/6 618/13/6 622/13/6 621/14/6
f 617/14/6 621/14/6 624/14/6 623/14/6
f 617/14/6 623/14/6 626/14/6 625/14/6
f 594/9/4 598/7/4 620/7/4 617/9/4
f 606/2/1 612/2/1 624/2/1 621/2/1
f 610/9/4 616/9/4 626/9/4 623/9/4
f 598/7/3 600/5/3 619/5/3 620/7/3
f 616/9/3 614/9/3 625/9/3 626/9/3
f 600/5/2 596/3/2 618/3/2 619/5/2
f 627/1/1 628/2/1 630/3/1 629/4/1
f 629/4/2 630/3/2 634/5/2 633/6/2
f 633/6/3 634/5/3 632/7/3 631/8/3
f 631/8/4 632/7/4 628/9/4 627/10/4
f 629/11/5 633/6/5 631/8/5 627/12/5
f 634/5/6 630/13/6 628/14/6 632/7/6
