# This file uses centimeters as units for non-parametric coordinates.

mtllib pallet.mtl
g default
v -318.096018 -36.430875 233.353311
v -318.096018 -23.878970 233.353309
v -318.096018 -36.430885 174.993247
v -318.096018 -23.878979 174.993245
v 316.794109 -36.430875 233.353311
v 316.794109 -23.878970 233.353309
v 316.794109 -36.430885 174.993247
v 316.794109 -23.878979 174.993245
v -318.096018 -36.430908 29.093102
v -318.096018 -23.879003 29.093100
v -318.096018 -36.430918 -29.266962
v -318.096018 -23.879013 -29.266964
v 316.794109 -36.430908 29.093102
v 316.794109 -23.879003 29.093100
v 316.794109 -36.430918 -29.266962
v 316.794109 -23.879013 -29.266964
v -318.096018 -36.430942 -175.167114
v -318.096018 -23.879037 -175.167116
v -318.096018 -36.430951 -233.527178
v -318.096018 -23.879046 -233.527180
v 316.794109 -36.430942 -175.167114
v 316.794109 -23.879037 -175.167116
v 316.794109 -36.430951 -233.527178
v 316.794109 -23.879046 -233.527180
v 268.598866 -24.222990 232.208113
v 268.598866 5.425102 232.208108
v 268.598866 -24.222998 186.678831
v 268.598866 5.425095 186.678826
v 316.477489 -24.222990 232.208113
v 316.477489 5.425102 232.208108
v 316.477489 -24.222998 186.678831
v 316.477489 5.425095 186.678826
v 268.598866 -24.223024 22.773389
v 268.598866 5.425068 22.773384
v 268.598866 -24.223032 -22.755905
v 268.598866 5.425061 -22.755910
v 316.477489 -24.223024 22.773389
v 316.477489 5.425068 22.773384
v 316.477489 -24.223032 -22.755905
v 316.477489 5.425061 -22.755910
v 268.598866 -24.223059 -186.661347
v 268.598866 5.425034 -186.661352
v 268.598866 -24.223066 -232.190629
v 268.598866 5.425027 -232.190634
v 316.477489 -24.223059 -186.661347
v 316.477489 5.425034 -186.661352
v 316.477489 -24.223066 -232.190629
v 316.477489 5.425027 -232.190634
v -23.460628 -24.222990 232.208113
v -23.460628 5.425102 232.208108
v -23.460628 -24.222998 186.678831
v -23.460628 5.425095 186.678826
v 24.417974 -24.222990 232.208113
v 24.417974 5.425102 232.208108
v 24.417974 -24.222998 186.678831
v 24.417974 5.425095 186.678826
v -23.460628 -24.223024 22.773389
v -23.460628 5.425068 22.773384
v -23.460628 -24.223032 -22.755905
v -23.460628 5.425061 -22.755910
v 24.417974 -24.223024 22.773389
v 24.417974 5.425068 22.773384
v 24.417974 -24.223032 -22.755905
v 24.417974 5.425061 -22.755910
v -23.460628 -24.223059 -186.661347
v -23.460628 5.425034 -186.661352
v -23.460628 -24.223066 -232.190629
v -23.460628 5.425027 -232.190634
v 24.417974 -24.223059 -186.661347
v 24.417974 5.425034 -186.661352
v 24.417974 -24.223066 -232.190629
v 24.417974 5.425027 -232.190634
v -315.520144 -24.222990 232.208113
v -315.520144 5.425102 232.208108
v -315.520144 -24.222998 186.678831
v -315.520144 5.425095 186.678826
v -267.641521 -24.222990 232.208113
v -267.641521 5.425102 232.208108
v -267.641521 -24.222998 186.678831
v -267.641521 5.425095 186.678826
v -315.520144 -24.223024 22.773389
v -315.520144 5.425068 22.773384
v -315.520144 -24.223032 -22.755905
v -315.520144 5.425061 -22.755910
v -267.641521 -24.223024 22.773389
v -267.641521 5.425068 22.773384
v -267.641521 -24.223032 -22.755905
v -267.641521 5.425061 -22.755910
v -315.520144 -24.223059 -186.661347
v -315.520144 5.425034 -186.661352
v -315.520144 -24.223066 -232.190629
v -315.520144 5.425027 -232.190634
v -267.641521 -24.223059 -186.661347
v -267.641521 5.425034 -186.661352
v -267.641521 -24.223066 -232.190629
v -267.641521 5.425027 -232.190634
v -318.096066 17.511047 233.353302
v -318.096066 29.493471 233.353300
v -318.096066 17.511037 174.993238
v -318.096066 29.493462 174.993236
v 316.794157 17.511047 233.353302
v 316.794157 29.493471 233.353300
v 316.794157 17.511037 174.993238
v 316.794157 29.493462 174.993236
v -318.096066 17.511033 151.649210
v -318.096066 29.493458 151.649208
v -318.096066 17.511024 93.289146
v -318.096066 29.493448 93.289144
v 316.794157 17.511033 151.649210
v 316.794157 29.493458 151.649208
v 316.794157 17.511024 93.289146
v 316.794157 29.493448 93.289144
v -318.096066 17.511020 69.945112
v -318.096066 29.493445 69.945110
v -318.096066 17.511011 11.585049
v -318.096066 29.493435 11.585048
v 316.794157 17.511020 69.945112
v 316.794157 29.493445 69.945110
v 316.794157 17.511011 11.585049
v 316.794157 29.493435 11.585048
v -318.096066 17.511007 -11.758982
v -318.096066 29.493431 -11.758983
v -318.096066 17.510997 -70.119044
v -318.096066 29.493422 -70.119046
v 316.794157 17.511007 -11.758982
v 316.794157 29.493431 -11.758983
v 316.794157 17.510997 -70.119044
v 316.794157 29.493422 -70.119046
v -318.096066 17.510993 -93.463078
v -318.096066 29.493418 -93.463080
v -318.096066 17.510984 -151.823142
v -318.096066 29.493409 -151.823144
v 316.794157 17.510993 -93.463078
v 316.794157 29.493418 -93.463080
v 316.794157 17.510984 -151.823142
v 316.794157 29.493409 -151.823144
v -318.096066 17.510980 -175.167170
v -318.096066 29.493405 -175.167172
v -318.096066 17.510971 -233.527258
v -318.096066 29.493395 -233.527260
v 316.794157 17.510980 -175.167170
v 316.794157 29.493405 -175.167172
v 316.794157 17.510971 -233.527258
v 316.794157 29.493395 -233.527260
v 316.333818 5.071415 233.647751
v 316.333818 17.623321 233.647749
v 268.806767 5.071415 233.647751
v 268.806767 17.623321 233.647749
v 316.333795 5.071339 -233.179713
v 316.333795 17.623245 -233.179715
v 268.806767 5.071339 -233.179713
v 268.806767 17.623245 -233.179715
v 24.280190 5.071415 233.647775
v 24.280190 17.623321 233.647773
v -23.246837 5.071415 233.647775
v -23.246837 17.623321 233.647773
v 24.280152 5.071339 -233.179689
v 24.280152 17.623245 -233.179691
v -23.246875 5.071339 -233.179689
v -23.246875 17.623245 -233.179691
v -267.773461 5.071415 233.647799
v -267.773461 17.623321 233.647797
v -315.300488 5.071415 233.647799
v -315.300488 17.623321 233.647797
v -267.773461 5.071339 -233.179689
v -267.773461 17.623245 -233.179691
v -315.300488 5.071339 -233.179689
v -315.300488 17.623245 -233.179691
vt 0.618596 0.653577
vt 0.229367 0.521968
vt 0.883148 0.844190
vt 0.616615 0.574787
vt 0.691339 0.724539
vt 0.433568 0.699869
vt 0.503218 0.006894
vt 0.724192 0.521968
vt 0.005786 0.565329
vt 0.392832 0.565329
vt 0.413926 0.711498
vt 0.291380 0.050255
vt 0.724192 0.006894
vt 0.514797 0.676604
vt 0.461351 0.950892
vt 0.613242 0.993029
vt 0.834206 0.521968
vt 0.319147 0.889461
vt 0.223740 0.050255
vt 0.340569 0.050255
vt 0.422947 0.912487
vt 0.927136 0.642053
vt 0.761062 0.694863
vt 0.101323 0.963816
vt 0.657166 0.521968
vt 0.111159 0.050255
vt 0.934139 0.521968
vt 0.214414 0.565329
vt 0.555183 0.716990
vt 0.995305 0.050255
vt 0.614531 0.724539
vt 0.613806 0.521968
vt 0.561543 0.050255
vt 0.825303 0.050255
vt 0.494316 0.565329
vt 0.707280 0.591064
vt 0.551811 0.850826
vt 0.682272 0.616072
vt 0.005786 0.050255
vt 0.515743 0.736506
vt 0.722658 0.733267
vt 0.921553 0.805785
vt 0.450955 0.050255
vt 0.877566 0.521968
vt 0.776455 0.521968
vt 0.715289 0.006894
vt 0.319147 0.966269
vt 0.348532 0.726876
vt 0.058473 0.521968
vt 0.452330 0.749902
vt 0.147063 0.572223
vt 0.207896 0.608407
vt 0.604903 0.521968
vt 0.012632 0.963816
vt 0.238693 0.565329
vt 0.289819 0.608407
vt 0.048816 1.000000
vt 0.048816 0.572223
vt 0.767552 0.050255
vt 0.223740 0.521968
vt 0.715289 0.050255
vt 0.890778 0.521968
vt 0.118367 0.050255
vt 0.943042 0.050255
vt 0.420172 0.636456
vt 0.229367 0.050255
vt 0.048816 0.608407
vt 0.921553 0.882594
vt 0.048816 0.963816
vt 0.986402 0.050255
vt 0.383929 0.006894
vt 0.631992 0.716990
vt 0.341382 0.557665
vt 0.786071 0.669854
vt 0.992531 0.657430
vt 0.865705 0.784256
vt 0.294139 0.864452
vt 0.615224 0.914239
vt 0.171054 0.050255
vt 0.779350 0.821163
vt 0.503218 0.521968
vt 0.411944 0.790288
vt 0.483585 0.573043
vt 0.392832 0.050255
vt 0.156619 0.608407
vt 0.058473 0.050255
vt 0.934139 0.565329
vt 0.555482 0.050255
vt 0.458577 0.598051
vt 0.436342 0.849075
vt 0.824475 0.631450
vt 0.628620 0.850826
vt 0.934139 0.050255
vt 0.450955 0.521968
vt 0.834206 0.006894
vt 0.716348 0.826356
vt 0.896544 0.780777
vt 0.379786 0.596070
vt 0.561543 0.521968
vt 0.161728 0.521968
vt 0.682009 0.590164
vt 0.445096 0.050255
vt 0.613806 0.050255
vt 0.058372 0.963816
vt 0.214414 0.050255
vt 0.942514 0.784256
vt 0.671929 0.050255
vt 0.383929 0.050255
vt 0.886469 0.050255
vt 0.253635 0.608407
vt 0.094556 0.608407
vt 0.238693 0.006894
vt 0.214414 0.521968
vt 0.637557 0.828338
vt 0.340569 0.521968
vt 0.494316 0.521968
vt 0.373540 0.751884
vt 0.334740 0.521968
vt 0.067798 0.521968
vt 0.653628 0.875835
vt 0.715289 0.521968
vt 0.354778 0.621078
vt 0.574838 0.954625
vt 0.244079 0.963816
vt 0.514797 0.599795
vt 0.589522 0.699531
vt 0.842762 0.884576
vt 0.943042 0.521968
vt 0.929118 0.720843
vt 0.110879 0.608407
vt 0.003076 0.608407
vt 0.716348 0.749547
vt 0.986402 0.521968
vt 0.094556 0.963816
vt 0.850328 0.642053
vt 0.207896 0.963816
vt 0.590215 0.889231
vt 0.666069 0.050255
vt 0.546579 0.050255
vt 0.794727 0.755768
vt 0.418191 0.557665
vt 0.192803 0.608407
vt 0.888732 0.680457
vt 0.799466 0.733267
vt 0.382560 0.952873
vt 0.511425 0.968021
vt 0.436193 0.050255
vt 0.015112 0.050255
vt 0.641623 0.549779
vt 0.754341 0.796154
vt 0.809097 0.566055
vt 0.819736 0.780777
vt 0.943042 0.565329
vt 0.613806 0.565329
vt 0.223740 0.006894
vt 0.392832 0.006894
vt 0.291380 0.521968
vt 0.539806 0.574787
vt 0.653628 0.952643
vt 0.253636 0.572223
vt 0.383930 0.565329
vt 0.058372 0.572223
vt 0.334525 0.824066
vt 0.776455 0.050255
vt 0.995305 0.521968
vt 0.881167 0.922980
vt 0.767552 0.521968
vt 0.015112 0.565329
vt 0.804358 0.922980
vt 0.886469 0.521968
vt 0.825303 0.521968
vt 0.574144 0.841734
vt 0.724192 0.050255
vt 0.715289 0.565329
vt 0.671929 0.521968
vt 0.356759 0.699869
vt 0.825303 0.006894
vt 0.515743 0.813315
vt 0.147063 0.608407
vt 0.445096 0.521968
vt 0.781942 0.050255
vt 0.005786 0.006894
vt 0.398548 0.853701
vt 0.657000 0.691982
vt 0.156619 1.000000
vt 0.967522 0.759247
vt 0.223740 0.565329
vt 0.858140 0.819181
vt 0.192803 0.963816
vt 0.334740 0.050255
vt 0.244079 0.608407
vt 0.015112 0.521968
vt 0.599153 0.866742
vt 0.825319 0.667061
vt 0.238693 0.521968
vt 0.494316 0.006894
vt 0.156619 0.572223
vt 0.198339 0.963816
vt 0.490735 0.711498
vt 0.952145 0.617044
vt 0.198339 0.608407
vt 0.012632 0.608407
vt 0.675962 0.866742
vt 0.536434 0.993029
vt 0.282054 0.521968
vt 0.943042 0.006894
vt 0.289819 0.963816
vt 0.111159 0.521968
vt 0.229367 0.006894
vt 0.253635 0.963816
vt 0.555482 0.521968
vt 0.967522 0.682439
vt 0.724192 0.565329
vt 0.904110 0.745851
vt 0.503218 0.565329
vt 0.436193 0.521968
vt 0.395164 0.661464
vt 0.443199 0.532657
vt 0.477339 0.774911
vt 0.890778 0.050255
vt 0.666069 0.521968
vt 0.834206 0.565329
vt 0.067798 0.050255
vt 0.817754 0.859567
vt 0.110879 0.963816
vt 0.657166 0.050255
vt 0.101323 0.608407
vt 0.373540 0.828692
vt 0.229367 0.565329
vt 0.612549 0.803329
vt 0.058372 1.000000
vt 0.934139 0.006894
vt 0.593588 0.678586
vt 0.613806 0.006894
vt 0.546579 0.521968
vt 0.214414 0.006894
vt 0.511425 0.891212
vt 0.549829 0.929617
vt 0.526803 0.825818
vt 0.781942 0.521968
vt 0.503218 0.050255
vt 0.357552 0.927865
vt 0.058372 0.608407
vt 0.834206 0.050255
vt 0.244079 0.572223
vt 0.244079 1.000000
vt 0.677943 0.787952
vt 0.147063 1.000000
vt 0.877566 0.050255
vt 0.118367 0.521968
vt 0.005786 0.521968
vt 0.436953 0.815297
vt 0.420965 0.991278
vt 0.397938 0.887479
vt 0.171054 0.521968
vt 0.745685 0.629468
vt 0.253635 1.000000
vt 0.604903 0.565329
vt 0.486417 0.866204
vt 0.238693 0.050255
vt 0.863724 0.705465
vt 0.849483 0.606441
vt 0.461351 0.874083
vt 0.161728 0.050255
vt 0.604903 0.006894
vt 0.494316 0.050255
vt 0.147063 0.963816
vt 0.475357 0.853701
vt 0.316373 0.659482
vt 0.282054 0.050255
vt 0.652935 0.762943
vt 0.549136 0.739917
vt 0.458577 0.674860
vt 0.720676 0.654477
vt 0.824475 0.708259
vt 0.344156 0.991278
vt 0.574144 0.764925
vt 0.682272 0.692881
vt 0.316374 0.582674
vt 0.604903 0.050255
vt 0.578210 0.613191
vt 0.825319 0.743870
vt 0.392832 0.521968
vt 0.003076 0.963816
vt 0.388918 0.686489
vt 0.359534 0.849075
vt 0.779350 0.897972
vt 0.784089 0.591064
vt 0.156619 0.963816
vt 0.553202 0.638200
vt 0.015112 0.006894
vt 0.383929 0.521968
vt 0.657000 0.615173
vt 0.825303 0.565329
vn -0.577350 -0.577350 0.577350
vn -0.577350 0.577350 0.577350
vn -0.577350 0.577350 -0.577350
vn -0.577350 -0.577350 -0.577350
vn -0.577350 -0.577350 -0.577350
vn -0.577350 0.577350 -0.577350
vn 0.577350 0.577350 -0.577350
vn 0.577350 -0.577350 -0.577350
vn 0.577350 -0.577350 -0.577350
vn 0.577350 0.577350 -0.577350
vn 0.577350 0.577350 0.577350
vn 0.577350 -0.577350 0.577350
vn 0.577350 -0.577350 0.577350
vn 0.577350 0.577350 0.577350
vn -0.577350 0.577350 0.577350
vn -0.577350 -0.577350 0.577350
vn -0.577350 -0.577350 -0.577350
vn 0.577350 -0.577350 -0.577350
vn 0.577350 -0.577350 0.577350
vn -0.577350 -0.577350 0.577350
vn 0.577350 0.577350 -0.577350
vn -0.577350 0.577350 -0.577350
vn -0.577350 0.577350 0.577350
vn 0.577350 0.577350 0.577350
vn -0.577350 -0.577350 0.577350
vn -0.577350 0.577350 0.577350
vn -0.577350 0.577350 -0.577350
vn -0.577350 -0.577350 -0.577350
vn -0.577350 -0.577350 -0.577350
vn -0.577350 0.577350 -0.577350
vn 0.577350 0.577350 -0.577350
vn 0.577350 -0.577350 -0.577350
vn 0.577350 -0.577350 -0.577350
vn 0.577350 0.577350 -0.577350
vn 0.577350 0.577350 0.577350
vn 0.577350 -0.577350 0.577350
vn 0.577350 -0.577350 0.577350
vn 0.577350 0.577350 0.577350
vn -0.577350 0.577350 0.577350
vn -0.577350 -0.577350 0.577350
vn -0.577350 -0.577350 -0.577350
vn 0.577350 -0.577350 -0.577350
vn 0.577350 -0.577350 0.577350
vn -0.577350 -0.577350 0.577350
vn 0.577350 0.577350 -0.577350
vn -0.577350 0.577350 -0.577350
vn -0.577350 0.577350 0.577350
vn 0.577350 0.577350 0.577350
vn -0.577350 -0.577350 0.577350
vn -0.577350 0.577350 0.577350
vn -0.577350 0.577350 -0.577350
vn -0.577350 -0.577350 -0.577350
vn -0.577350 -0.577350 -0.577350
vn -0.577350 0.577350 -0.577350
vn 0.577350 0.577350 -0.577350
vn 0.577350 -0.577350 -0.577350
vn 0.577350 -0.577350 -0.577350
vn 0.577350 0.577350 -0.577350
vn 0.577350 0.577350 0.577350
vn 0.577350 -0.577350 0.577350
vn 0.577350 -0.577350 0.577350
vn 0.577350 0.577350 0.577350
vn -0.577350 0.577350 0.577350
vn -0.577350 -0.577350 0.577350
vn -0.577350 -0.577350 -0.577350
vn 0.577350 -0.577350 -0.577350
vn 0.577350 -0.577350 0.577350
vn -0.577350 -0.577350 0.577350
vn 0.577350 0.577350 -0.577350
vn -0.577350 0.577350 -0.577350
vn -0.577350 0.577350 0.577350
vn 0.577350 0.577350 0.577350
vn -0.577350 -0.577350 0.577350
vn -0.577350 0.577350 0.577350
vn -0.577350 0.577350 -0.577350
vn -0.577350 -0.577350 -0.577350
vn -0.577350 -0.577350 -0.577350
vn -0.577350 0.577350 -0.577350
vn 0.577350 0.577350 -0.577350
vn 0.577350 -0.577350 -0.577350
vn 0.577350 -0.577350 -0.577350
vn 0.577350 0.577350 -0.577350
vn 0.577350 0.577350 0.577350
vn 0.577350 -0.577350 0.577350
vn 0.577350 -0.577350 0.577350
vn 0.577350 0.577350 0.577350
vn -0.577350 0.577350 0.577350
vn -0.577350 -0.577350 0.577350
vn -0.577350 -0.577350 -0.577350
vn 0.577350 -0.577350 -0.577350
vn 0.577350 -0.577350 0.577350
vn -0.577350 -0.577350 0.577350
vn 0.577350 0.577350 -0.577350
vn -0.577350 0.577350 -0.577350
vn -0.577350 0.577350 0.577350
vn 0.577350 0.577350 0.577350
vn -0.577350 -0.577350 0.577350
vn -0.577350 0.577350 0.577350
vn -0.577350 0.577350 -0.577350
vn -0.577350 -0.577350 -0.577350
vn -0.577350 -0.577350 -0.577350
vn -0.577350 0.577350 -0.577350
vn 0.577350 0.577350 -0.577350
vn 0.577350 -0.577350 -0.577350
vn 0.577350 -0.577350 -0.577350
vn 0.577350 0.577350 -0.577350
vn 0.577350 0.577350 0.577350
vn 0.577350 -0.577350 0.577350
vn 0.577350 -0.577350 0.577350
vn 0.577350 0.577350 0.577350
vn -0.577350 0.577350 0.577350
vn -0.577350 -0.577350 0.577350
vn -0.577350 -0.577350 -0.577350
vn 0.577350 -0.577350 -0.577350
vn 0.577350 -0.577350 0.577350
vn -0.577350 -0.577350 0.577350
vn 0.577350 0.577350 -0.577350
vn -0.577350 0.577350 -0.577350
vn -0.577350 0.577350 0.577350
vn 0.577350 0.577350 0.577350
vn -0.577350 -0.577350 0.577350
vn -0.577350 0.577350 0.577350
vn -0.577350 0.577350 -0.577350
vn -0.577350 -0.577350 -0.577350
vn -0.577350 -0.577350 -0.577350
vn -0.577350 0.577350 -0.577350
vn 0.577350 0.577350 -0.577350
vn 0.577350 -0.577350 -0.577350
vn 0.577350 -0.577350 -0.577350
vn 0.577350 0.577350 -0.577350
vn 0.577350 0.577350 0.577350
vn 0.577350 -0.577350 0.577350
vn 0.577350 -0.577350 0.577350
vn 0.577350 0.577350 0.577350
vn -0.577350 0.577350 0.577350
vn -0.577350 -0.577350 0.577350
vn -0.577350 -0.577350 -0.577350
vn 0.577350 -0.577350 -0.577350
vn 0.577350 -0.577350 0.577350
vn -0.577350 -0.577350 0.577350
vn 0.577350 0.577350 -0.577350
vn -0.577350 0.577350 -0.577350
vn -0.577350 0.577350 0.577350
vn 0.577350 0.577350 0.577350
vn -0.577350 -0.577350 0.577350
vn -0.577350 0.577350 0.577350
vn -0.577350 0.577350 -0.577350
vn -0.577350 -0.577350 -0.577350
vn -0.577350 -0.577350 -0.577350
vn -0.577350 0.577350 -0.577350
vn 0.577350 0.577350 -0.577350
vn 0.577350 -0.577350 -0.577350
vn 0.577350 -0.577350 -0.577350
vn 0.577350 0.577350 -0.577350
vn 0.577350 0.577350 0.577350
vn 0.577350 -0.577350 0.577350
vn 0.577350 -0.577350 0.577350
vn 0.577350 0.577350 0.577350
vn -0.577350 0.577350 0.577350
vn -0.577350 -0.577350 0.577350
vn -0.577350 -0.577350 -0.577350
vn 0.577350 -0.577350 -0.577350
vn 0.577350 -0.577350 0.577350
vn -0.577350 -0.577350 0.577350
vn 0.577350 0.577350 -0.577350
vn -0.577350 0.577350 -0.577350
vn -0.577350 0.577350 0.577350
vn 0.577350 0.577350 0.577350
vn -0.577350 -0.577350 0.577350
vn -0.577350 0.577350 0.577350
vn -0.577350 0.577350 -0.577350
vn -0.577350 -0.577350 -0.577350
vn -0.577350 -0.577350 -0.577350
vn -0.577350 0.577350 -0.577350
vn 0.577350 0.577350 -0.577350
vn 0.577350 -0.577350 -0.577350
vn 0.577350 -0.577350 -0.577350
vn 0.577350 0.577350 -0.577350
vn 0.577350 0.577350 0.577350
vn 0.577350 -0.577350 0.577350
vn 0.577350 -0.577350 0.577350
vn 0.577350 0.577350 0.577350
vn -0.577350 0.577350 0.577350
vn -0.577350 -0.577350 0.577350
vn -0.577350 -0.577350 -0.577350
vn 0.577350 -0.577350 -0.577350
vn 0.577350 -0.577350 0.577350
vn -0.577350 -0.577350 0.577350
vn 0.577350 0.577350 -0.577350
vn -0.577350 0.577350 -0.577350
vn -0.577350 0.577350 0.577350
vn 0.577350 0.577350 0.577350
vn -0.577350 -0.577350 0.577350
vn -0.577350 0.577350 0.577350
vn -0.577350 0.577350 -0.577350
vn -0.577350 -0.577350 -0.577350
vn -0.577350 -0.577350 -0.577350
vn -0.577350 0.577350 -0.577350
vn 0.577350 0.577350 -0.577350
vn 0.577350 -0.577350 -0.577350
vn 0.577350 -0.577350 -0.577350
vn 0.577350 0.577350 -0.577350
vn 0.577350 0.577350 0.577350
vn 0.577350 -0.577350 0.577350
vn 0.577350 -0.577350 0.577350
vn 0.577350 0.577350 0.577350
vn -0.577350 0.577350 0.577350
vn -0.577350 -0.577350 0.577350
vn -0.577350 -0.577350 -0.577350
vn 0.577350 -0.577350 -0.577350
vn 0.577350 -0.577350 0.577350
vn -0.577350 -0.577350 0.577350
vn 0.577350 0.577350 -0.577350
vn -0.577350 0.577350 -0.577350
vn -0.577350 0.577350 0.577350
vn 0.577350 0.577350 0.577350
vn -0.577350 -0.577350 0.577350
vn -0.577350 0.577350 0.577350
vn -0.577350 0.577350 -0.577350
vn -0.577350 -0.577350 -0.577350
vn -0.577350 -0.577350 -0.577350
vn -0.577350 0.577350 -0.577350
vn 0.577350 0.577350 -0.577350
vn 0.577350 -0.577350 -0.577350
vn 0.577350 -0.577350 -0.577350
vn 0.577350 0.577350 -0.577350
vn 0.577350 0.577350 0.577350
vn 0.577350 -0.577350 0.577350
vn 0.577350 -0.577350 0.577350
vn 0.577350 0.577350 0.577350
vn -0.577350 0.577350 0.577350
vn -0.577350 -0.577350 0.577350
vn -0.577350 -0.577350 -0.577350
vn 0.577350 -0.577350 -0.577350
vn 0.577350 -0.577350 0.577350
vn -0.577350 -0.577350 0.577350
vn 0.577350 0.577350 -0.577350
vn -0.577350 0.577350 -0.577350
vn -0.577350 0.577350 0.577350
vn 0.577350 0.577350 0.577350
vn -0.577350 -0.577350 0.577350
vn -0.577350 0.577350 0.577350
vn -0.577350 0.577350 -0.577350
vn -0.577350 -0.577350 -0.577350
vn -0.577350 -0.577350 -0.577350
vn -0.577350 0.577350 -0.577350
vn 0.577350 0.577350 -0.577350
vn 0.577350 -0.577350 -0.577350
vn 0.577350 -0.577350 -0.577350
vn 0.577350 0.577350 -0.577350
vn 0.577350 0.577350 0.577350
vn 0.577350 -0.577350 0.577350
vn 0.577350 -0.577350 0.577350
vn 0.577350 0.577350 0.577350
vn -0.577350 0.577350 0.577350
vn -0.577350 -0.577350 0.577350
vn -0.577350 -0.577350 -0.577350
vn 0.577350 -0.577350 -0.577350
vn 0.577350 -0.577350 0.577350
vn -0.577350 -0.577350 0.577350
vn 0.577350 0.577350 -0.577350
vn -0.577350 0.577350 -0.577350
vn -0.577350 0.577350 0.577350
vn 0.577350 0.577350 0.577350
vn -0.577350 -0.577350 0.577350
vn -0.577350 0.577350 0.577350
vn -0.577350 0.577350 -0.577350
vn -0.577350 -0.577350 -0.577350
vn -0.577350 -0.577350 -0.577350
vn -0.577350 0.577350 -0.577350
vn 0.577350 0.577350 -0.577350
vn 0.577350 -0.577350 -0.577350
vn 0.577350 -0.577350 -0.577350
vn 0.577350 0.577350 -0.577350
vn 0.577350 0.577350 0.577350
vn 0.577350 -0.577350 0.577350
vn 0.577350 -0.577350 0.577350
vn 0.577350 0.577350 0.577350
vn -0.577350 0.577350 0.577350
vn -0.577350 -0.577350 0.577350
vn -0.577350 -0.577350 -0.577350
vn 0.577350 -0.577350 -0.577350
vn 0.577350 -0.577350 0.577350
vn -0.577350 -0.577350 0.577350
vn 0.577350 0.577350 -0.577350
vn -0.577350 0.577350 -0.577350
vn -0.577350 0.577350 0.577350
vn 0.577350 0.577350 0.577350
vn -0.577350 -0.577350 0.577350
vn -0.577350 0.577350 0.577350
vn -0.577350 0.577350 -0.577350
vn -0.577350 -0.577350 -0.577350
vn -0.577350 -0.577350 -0.577350
vn -0.577350 0.577350 -0.577350
vn 0.577350 0.577350 -0.577350
vn 0.577350 -0.577350 -0.577350
vn 0.577350 -0.577350 -0.577350
vn 0.577350 0.577350 -0.577350
vn 0.577350 0.577350 0.577350
vn 0.577350 -0.577350 0.577350
vn 0.577350 -0.577350 0.577350
vn 0.577350 0.577350 0.577350
vn -0.577350 0.577350 0.577350
vn -0.577350 -0.577350 0.577350
vn -0.577350 -0.577350 -0.577350
vn 0.577350 -0.577350 -0.577350
vn 0.577350 -0.577350 0.577350
vn -0.577350 -0.577350 0.577350
vn 0.577350 0.577350 -0.577350
vn -0.577350 0.577350 -0.577350
vn -0.577350 0.577350 0.577350
vn 0.577350 0.577350 0.577350
vn -0.577350 -0.577350 0.577350
vn -0.577350 0.577350 0.577350
vn -0.577350 0.577350 -0.577350
vn -0.577350 -0.577350 -0.577350
vn -0.577350 -0.577350 -0.577350
vn -0.577350 0.577350 -0.577350
vn 0.577350 0.577350 -0.577350
vn 0.577350 -0.577350 -0.577350
vn 0.577350 -0.577350 -0.577350
vn 0.577350 0.577350 -0.577350
vn 0.577350 0.577350 0.577350
vn 0.577350 -0.577350 0.577350
vn 0.577350 -0.577350 0.577350
vn 0.577350 0.577350 0.577350
vn -0.577350 0.577350 0.577350
vn -0.577350 -0.577350 0.577350
vn -0.577350 -0.577350 -0.577350
vn 0.577350 -0.577350 -0.577350
vn 0.577350 -0.577350 0.577350
vn -0.577350 -0.577350 0.577350
vn 0.577350 0.577350 -0.577350
vn -0.577350 0.577350 -0.577350
vn -0.577350 0.577350 0.577350
vn 0.577350 0.577350 0.577350
vn -0.577350 -0.577350 0.577350
vn -0.577350 0.577350 0.577350
vn -0.577350 0.577350 -0.577350
vn -0.577350 -0.577350 -0.577350
vn -0.577350 -0.577350 -0.577350
vn -0.577350 0.577350 -0.577350
vn 0.577350 0.577350 -0.577350
vn 0.577350 -0.577350 -0.577350
vn 0.577350 -0.577350 -0.577350
vn 0.577350 0.577350 -0.577350
vn 0.577350 0.577350 0.577350
vn 0.577350 -0.577350 0.577350
vn 0.577350 -0.577350 0.577350
vn 0.577350 0.577350 0.577350
vn -0.577350 0.577350 0.577350
vn -0.577350 -0.577350 0.577350
vn -0.577350 -0.577350 -0.577350
vn 0.577350 -0.577350 -0.577350
vn 0.577350 -0.577350 0.577350
vn -0.577350 -0.577350 0.577350
vn 0.577350 0.577350 -0.577350
vn -0.577350 0.577350 -0.577350
vn -0.577350 0.577350 0.577350
vn 0.577350 0.577350 0.577350
vn -0.577350 -0.577350 0.577350
vn -0.577350 0.577350 0.577350
vn -0.577350 0.577350 -0.577350
vn -0.577350 -0.577350 -0.577350
vn -0.577350 -0.577350 -0.577350
vn -0.577350 0.577350 -0.577350
vn 0.577350 0.577350 -0.577350
vn 0.577350 -0.577350 -0.577350
vn 0.577350 -0.577350 -0.577350
vn 0.577350 0.577350 -0.577350
vn 0.577350 0.577350 0.577350
vn 0.577350 -0.577350 0.577350
vn 0.577350 -0.577350 0.577350
vn 0.577350 0.577350 0.577350
vn -0.577350 0.577350 0.577350
vn -0.577350 -0.577350 0.577350
vn -0.577350 -0.577350 -0.577350
vn 0.577350 -0.577350 -0.577350
vn 0.577350 -0.577350 0.577350
vn -0.577350 -0.577350 0.577350
vn 0.577350 0.577350 -0.577350
vn -0.577350 0.577350 -0.577350
vn -0.577350 0.577350 0.577350
vn 0.577350 0.577350 0.577350
vn -0.577350 -0.577350 0.577350
vn -0.577350 0.577350 0.577350
vn -0.577350 0.577350 -0.577350
vn -0.577350 -0.577350 -0.577350
vn -0.577350 -0.577350 -0.577350
vn -0.577350 0.577350 -0.577350
vn 0.577350 0.577350 -0.577350
vn 0.577350 -0.577350 -0.577350
vn 0.577350 -0.577350 -0.577350
vn 0.577350 0.577350 -0.577350
vn 0.577350 0.577350 0.577350
vn 0.577350 -0.577350 0.577350
vn 0.577350 -0.577350 0.577350
vn 0.577350 0.577350 0.577350
vn -0.577350 0.577350 0.577350
vn -0.577350 -0.577350 0.577350
vn -0.577350 -0.577350 -0.577350
vn 0.577350 -0.577350 -0.577350
vn 0.577350 -0.577350 0.577350
vn -0.577350 -0.577350 0.577350
vn 0.577350 0.577350 -0.577350
vn -0.577350 0.577350 -0.577350
vn -0.577350 0.577350 0.577350
vn 0.577350 0.577350 0.577350
vn -0.577350 -0.577350 0.577350
vn -0.577350 0.577350 0.577350
vn -0.577350 0.577350 -0.577350
vn -0.577350 -0.577350 -0.577350
vn -0.577350 -0.577350 -0.577350
vn -0.577350 0.577350 -0.577350
vn 0.577350 0.577350 -0.577350
vn 0.577350 -0.577350 -0.577350
vn 0.577350 -0.577350 -0.577350
vn 0.577350 0.577350 -0.577350
vn 0.577350 0.577350 0.577350
vn 0.577350 -0.577350 0.577350
vn 0.577350 -0.577350 0.577350
vn 0.577350 0.577350 0.577350
vn -0.577350 0.577350 0.577350
vn -0.577350 -0.577350 0.577350
vn -0.577350 -0.577350 -0.577350
vn 0.577350 -0.577350 -0.577350
vn 0.577350 -0.577350 0.577350
vn -0.577350 -0.577350 0.577350
vn 0.577350 0.577350 -0.577350
vn -0.577350 0.577350 -0.577350
vn -0.577350 0.577350 0.577350
vn 0.577350 0.577350 0.577350
vn 0.577350 -0.577350 0.577350
vn 0.577350 0.577350 0.577350
vn -0.577350 0.577350 0.577350
vn -0.577350 -0.577350 0.577350
vn -0.577350 -0.577350 0.577350
vn -0.577350 0.577350 0.577350
vn -0.577350 0.577350 -0.577350
vn -0.577350 -0.577350 -0.577350
vn -0.577350 -0.577350 -0.577350
vn -0.577350 0.577350 -0.577350
vn 0.577350 0.577350 -0.577350
vn 0.577350 -0.577350 -0.577350
vn 0.577350 -0.577350 -0.577350
vn 0.577350 0.577350 -0.577350
vn 0.577350 0.577350 0.577350
vn 0.577350 -0.577350 0.577350
vn -0.577350 -0.577350 0.577350
vn -0.577350 -0.577350 -0.577350
vn 0.577350 -0.577350 -0.577350
vn 0.577350 -0.577350 0.577350
vn -0.577350 0.577350 -0.577350
vn -0.577350 0.577350 0.577350
vn 0.577350 0.577350 0.577350
vn 0.577350 0.577350 -0.577350
vn 0.577350 -0.577350 0.577350
vn 0.577350 0.577350 0.577350
vn -0.577350 0.577350 0.577350
vn -0.577350 -0.577350 0.577350
vn -0.577350 -0.577350 0.577350
vn -0.577350 0.577350 0.577350
vn -0.577350 0.577350 -0.577350
vn -0.577350 -0.577350 -0.577350
vn -0.577350 -0.577350 -0.577350
vn -0.577350 0.577350 -0.577350
vn 0.577350 0.577350 -0.577350
vn 0.577350 -0.577350 -0.577350
vn 0.577350 -0.577350 -0.577350
vn 0.577350 0.577350 -0.577350
vn 0.577350 0.577350 0.577350
vn 0.577350 -0.577350 0.577350
vn -0.577350 -0.577350 0.577350
vn -0.577350 -0.577350 -0.577350
vn 0.577350 -0.577350 -0.577350
vn 0.577350 -0.577350 0.577350
vn -0.577350 0.577350 -0.577350
vn -0.577350 0.577350 0.577350
vn 0.577350 0.577350 0.577350
vn 0.577350 0.577350 -0.577350
vn 0.577350 -0.577350 0.577350
vn 0.577350 0.577350 0.577350
vn -0.577350 0.577350 0.577350
vn -0.577350 -0.577350 0.577350
vn -0.577350 -0.577350 0.577350
vn -0.577350 0.577350 0.577350
vn -0.577350 0.577350 -0.577350
vn -0.577350 -0.577350 -0.577350
vn -0.577350 -0.577350 -0.577350
vn -0.577350 0.577350 -0.577350
vn 0.577350 0.577350 -0.577350
vn 0.577350 -0.577350 -0.577350
vn 0.577350 -0.577350 -0.577350
vn 0.577350 0.577350 -0.577350
vn 0.577350 0.577350 0.577350
vn 0.577350 -0.577350 0.577350
vn -0.577350 -0.577350 0.577350
vn -0.577350 -0.577350 -0.577350
vn 0.577350 -0.577350 -0.577350
vn 0.577350 -0.577350 0.577350
vn -0.577350 0.577350 -0.577350
vn -0.577350 0.577350 0.577350
vn 0.577350 0.577350 0.577350
vn 0.577350 0.577350 -0.577350
s off
g CubeFBXASC046001
usemtl CubeFBXASC046001SG
f 1/113/1 2/60/2 4/187/3 3/28/4
f 3/255/5 4/100/6 8/264/7 7/79/8
f 7/236/9 8/155/10 6/19/11 5/105/12
f 5/105/13 6/19/14 2/60/15 1/113/16
f 3/255/17 7/79/18 5/105/19 1/113/20
f 8/264/21 4/100/22 2/250/23 6/63/24
f 9/260/25 10/66/26 12/209/27 11/112/28
f 11/270/29 12/12/30 16/157/31 15/205/32
f 15/55/33 16/229/34 14/2/35 13/195/36
f 13/195/37 14/2/38 10/66/39 9/260/40
f 11/270/41 15/205/42 13/195/43 9/260/44
f 16/157/45 12/12/46 10/190/47 14/118/48
f 17/148/49 18/39/50 20/182/51 19/291/52
f 19/86/53 20/223/54 24/119/55 23/49/56
f 23/168/57 24/9/58 22/251/59 21/192/60
f 21/192/61 22/251/62 18/39/63 17/148/64
f 19/86/65 23/49/66 21/192/67 17/148/68
f 24/119/69 20/223/70 18/26/71 22/208/72
f 25/199/73 26/40/74 28/219/75 27/50/76
f 27/50/77 28/219/78 32/252/79 31/82/80
f 31/82/81 32/252/82 30/183/83 29/228/84
f 29/117/85 30/48/86 26/285/87 25/11/88
f 27/50/89 31/82/90 29/117/91 25/11/92
f 32/252/93 28/219/94 26/178/95 30/268/96
f 33/184/97 34/72/98 36/233/99 35/1/100
f 35/1/101 36/233/102 40/290/103 39/281/104
f 39/281/105 40/290/106 38/125/107 37/158/108
f 37/4/109 38/149/110 34/101/111 33/293/112
f 35/1/113 39/281/114 37/4/115 33/293/116
f 40/290/117 36/233/118 34/29/119 38/14/120
f 41/90/121 42/263/122 44/21/123 43/254/124
f 43/254/125 44/21/126 48/145/127 47/242/128
f 47/242/129 48/145/130 46/276/131 45/47/132
f 45/18/133 46/77/134 42/163/135 41/286/136
f 43/254/137 47/242/138 45/18/139 41/286/140
f 48/145/141 44/21/142 42/15/143 46/253/144
f 49/273/145 50/6/146 52/217/147 51/65/148
f 51/65/149 52/217/150 56/122/151 55/98/152
f 55/98/153 56/122/154 54/279/155 53/73/156
f 53/141/157 54/218/158 50/83/159 49/89/160
f 51/65/161 55/98/162 53/141/163 49/89/164
f 56/122/165 52/217/166 50/176/167 54/269/168
f 57/186/169 58/106/170 60/214/171 59/129/172
f 59/129/173 60/214/174 64/261/175 63/143/176
f 63/143/177 64/261/178 62/194/179 61/135/180
f 61/22/181 62/200/182 58/75/183 57/212/184
f 59/129/185 63/143/186 61/22/187 57/212/188
f 64/261/189 60/214/190 58/76/191 62/282/192
f 65/5/193 66/132/194 68/247/195 67/271/196
f 67/271/197 68/247/198 72/114/199 71/230/200
f 71/230/201 72/114/202 70/193/203 69/172/204
f 69/277/205 70/272/206 66/126/207 65/31/208
f 67/271/209 71/230/210 69/277/211 65/31/212
f 72/114/213 68/247/214 66/96/215 70/203/216
f 73/92/217 74/120/218 76/78/219 75/137/220
f 75/137/221 76/78/222 80/123/223 79/238/224
f 79/238/225 80/123/226 78/204/227 77/146/228
f 77/237/229 78/259/230 74/239/231 73/37/232
f 75/137/233 79/238/234 77/237/235 73/37/236
f 80/123/237 76/78/238 74/159/239 78/16/240
f 81/275/241 82/144/242 84/23/243 83/74/244
f 83/74/245 84/23/246 88/274/247 87/256/248
f 87/256/249 88/274/250 86/38/251 85/36/252
f 85/288/253 86/151/254 82/262/255 81/91/256
f 83/74/257 87/256/258 85/288/259 81/91/260
f 88/274/261 84/23/262 82/41/263 86/278/264
f 89/97/265 90/42/266 92/3/267 91/188/268
f 91/188/269 92/3/270 96/127/271 95/224/272
f 95/224/273 96/127/274 94/169/275 93/287/276
f 93/80/277 94/150/278 90/140/279 89/152/280
f 91/188/281 95/224/282 93/80/283 89/152/284
f 96/127/285 92/3/286 90/68/287 94/166/288
f 97/64/289 98/93/290 100/232/291 99/206/292
f 99/70/293 100/30/294 104/165/295 103/133/296
f 103/153/297 104/87/298 102/27/299 101/128/300
f 101/128/301 102/27/302 98/93/303 97/64/304
f 99/70/305 103/133/306 101/128/307 97/64/308
f 104/62/309 100/220/310 98/93/311 102/27/312
f 105/103/313 106/280/314 108/265/315 107/234/316
f 107/226/317 108/138/318 112/221/319 111/25/320
f 111/154/321 112/258/322 110/53/323 109/32/324
f 109/32/325 110/53/326 106/280/327 105/103/328
f 107/226/329 111/25/330 109/32/331 105/103/332
f 112/99/333 108/33/334 106/280/335 110/53/336
f 113/241/337 114/266/338 116/196/339 115/7/340
f 115/139/341 116/88/342 120/211/343 119/235/344
f 119/215/345 120/35/346 118/116/347 117/81/348
f 117/81/349 118/116/350 114/266/351 113/241/352
f 115/139/353 119/235/354 117/81/355 113/241/356
f 120/94/357 116/43/358 114/266/359 118/116/360
f 121/244/361 122/34/362 124/177/363 123/95/364
f 123/249/365 124/109/366 128/170/367 127/44/368
f 127/222/369 128/294/370 126/171/371 125/17/372
f 125/17/373 126/171/374 122/34/375 121/244/376
f 123/249/377 127/44/378 125/17/379 121/244/380
f 128/240/381 124/181/382 122/34/383 126/171/384
f 129/173/385 130/61/386 132/46/387 131/13/388
f 131/59/389 132/164/390 136/45/391 135/167/392
f 135/213/393 136/174/394 134/121/395 133/8/396
f 133/8/397 134/121/398 130/61/399 129/173/400
f 131/59/401 135/167/402 133/8/403 129/173/404
f 136/175/405 132/107/406 130/61/407 134/121/408
f 137/84/409 138/108/410 140/71/411 139/156/412
f 139/147/413 140/102/414 144/180/415 143/216/416
f 143/10/417 144/161/418 142/292/419 141/283/420
f 141/283/421 142/292/422 138/108/423 137/84/424
f 139/147/425 143/216/426 141/283/427 137/84/428
f 144/115/429 140/20/430 138/108/431 142/292/432
f 145/58/433 146/162/434 148/243/435 147/67/436
f 147/67/437 148/243/438 152/104/439 151/69/440
f 151/69/441 152/104/442 150/231/443 149/57/444
f 149/54/445 150/284/446 146/131/447 145/202/448
f 147/67/449 151/69/450 149/54/451 145/202/452
f 152/104/453 148/243/454 146/111/455 150/134/456
f 153/51/457 154/197/458 156/85/459 155/179/460
f 155/179/461 156/85/462 160/289/463 159/267/464
f 159/267/465 160/289/466 158/185/467 157/248/468
f 157/225/469 158/24/470 154/227/471 153/130/472
f 155/179/473 159/267/474 157/225/475 153/130/476
f 160/289/477 156/85/478 154/142/479 158/189/480
f 161/245/481 162/160/482 164/110/483 163/191/484
f 163/191/485 164/110/486 168/210/487 167/124/488
f 167/124/489 168/210/490 166/257/491 165/246/492
f 165/136/493 166/198/494 162/201/495 161/52/496
f 163/191/497 167/124/498 165/136/499 161/52/500
f 168/210/501 164/110/502 162/56/503 166/207/504
