# Blender 4.3.2
# www.blender.org
mtllib scrap machines.mtl
o Cube.534
v -1.732659 -2.599212 -1.995293
v -1.948519 -2.383352 -1.995293
v 2.253772 2.662675 -1.995295
v 2.037912 2.878535 -1.995295
v -1.732659 -2.599212 -1.866636
v -1.948519 -2.383352 -1.866636
v 2.253772 2.662675 -1.866638
v 2.037912 2.878535 -1.866637
v 2.098285 -2.754097 2.540813
v 2.098286 3.104651 2.540813
v 2.098285 -2.754097 2.199766
v 2.098286 3.104651 2.199766
v 2.439332 -2.754097 2.540813
v 2.439332 3.104651 2.540813
v 2.439332 -2.754097 2.199766
v 2.439332 3.104651 2.199766
v 2.098285 2.697471 2.540813
v 2.098285 2.697471 2.199766
v 2.439332 2.697471 2.199766
v 2.439332 2.697471 2.540813
v -1.901714 2.697471 2.540813
v -1.901714 3.104651 2.540813
v -1.901714 3.104651 2.199766
v -1.901714 2.697471 2.199766
v -1.901714 2.697471 2.540813
v -1.901714 3.104651 2.540813
v -1.901714 3.104651 2.199766
v -1.901714 2.697471 2.199766
v -2.217232 2.697471 2.540813
v -2.217232 3.104651 2.540812
v -2.217233 3.104651 2.199766
v -2.217232 2.697471 2.199767
v -1.901714 -2.752342 2.540813
v -1.901714 -2.752342 2.199766
v -2.217233 -2.752342 2.540812
v -2.217233 -2.752342 2.199766
v 2.098285 3.104651 -1.800234
v 2.439332 3.104651 -1.800234
v 2.098286 2.697472 -1.800234
v 2.439332 2.697471 -1.800234
v -1.901714 3.104651 -1.800234
v -1.901714 2.697471 -1.800234
v -2.217232 3.104651 -1.800234
v -2.217232 2.697471 -1.800234
v 2.098286 3.104651 -2.160705
v 2.439332 3.104651 -2.160705
v 2.098286 2.697471 -2.160705
v 2.439332 2.697471 -2.160705
v -1.901715 3.104651 -2.160705
v -1.901715 2.697471 -2.160705
v -2.217232 3.104651 -2.160705
v -2.217232 2.697471 -2.160705
v 2.098286 -2.809083 -1.800234
v 2.439332 -2.809083 -1.800234
v -2.217232 -2.809083 -1.800234
v -1.901714 -2.809083 -1.800234
v 2.098286 -2.809083 -2.160705
v 2.439332 -2.809083 -2.160705
v -2.217232 -2.809083 -2.160705
v -1.901714 -2.809083 -2.160705
v 2.201634 3.104651 -1.800234
v 2.201634 2.697471 -1.800234
v 2.201634 3.104651 -2.160705
v 2.201634 2.697471 -2.160705
v 2.098286 -2.401054 2.199766
v 2.439332 -2.401054 2.199766
v 2.439332 -2.401054 2.540813
v 2.098286 -2.401054 2.540813
v 2.098286 -2.401054 -1.805829
v 2.098286 -2.754097 -1.805829
v 2.439332 -2.754097 -1.805830
v 2.439332 -2.401054 -1.805830
v 2.098285 -2.401054 -2.156395
v 2.098286 -2.754097 -2.156394
v 2.439332 -2.754097 -2.156395
v 2.439332 -2.401054 -2.156395
v -1.902719 -2.401054 -1.805829
v -1.902719 -2.754097 -1.805829
v -1.902719 -2.401054 -2.156395
v -1.902719 -2.754097 -2.156394
v -2.212363 -2.401054 -1.805829
v -2.212364 -2.754097 -1.805829
v -2.212363 -2.401054 -2.156394
v -2.212364 -2.754097 -2.156394
v -1.922224 -2.754097 2.199766
v -1.922224 -2.754097 2.540813
v -1.922224 -2.401054 2.199766
v -1.922224 -2.401054 2.540813
v -2.225617 -2.754097 2.199766
v -2.225617 -2.754097 2.540812
v -2.225617 -2.401054 2.199767
v -2.225617 -2.401054 2.540813
v -1.922224 -2.401054 -1.825598
v -1.922224 -2.754097 -1.825598
v -2.225617 -2.401054 -1.825598
v -2.225617 -2.754097 -1.825598
v 2.098286 -2.401054 -1.849820
v 2.098286 -2.754097 -1.849820
v -1.922224 -2.401054 -1.849820
v -1.922224 -2.754097 -1.849820
v 2.098285 3.104651 -1.815230
v 2.098286 2.697472 -1.815230
v -1.901714 3.104651 -1.815230
v -1.901714 2.697471 -1.815230
v -2.125081 -2.599213 2.066938
v -2.125081 -2.383353 2.282798
v -2.125081 2.662674 -1.919493
v -2.125080 2.878534 -1.703633
v -1.996995 -2.599213 2.066937
v -1.996995 -2.383353 2.282798
v -1.996995 2.662674 -1.919493
v -1.996995 2.878534 -1.703633
v -1.998398 -2.599213 -1.636970
v -1.998398 -2.383353 -1.852831
v -1.998397 2.662674 2.349460
v -1.998397 2.878534 2.133600
v -2.126484 -2.599213 -1.636970
v -2.126484 -2.383353 -1.852831
v -2.126482 2.662674 2.349460
v -2.126482 2.878534 2.133600
v 1.971252 -2.599213 -1.868047
v 2.187112 -2.383353 -1.868047
v -2.015178 2.662674 -1.868047
v -1.799318 2.878534 -1.868047
v 1.971252 -2.599213 -1.996704
v 2.187112 -2.383353 -1.996704
v -2.015178 2.662674 -1.996704
v -1.799318 2.878534 -1.996704
v 1.971251 -2.599213 2.459197
v 2.187111 -2.383353 2.459197
v -2.015179 2.662674 2.459197
v -1.799319 2.878534 2.459198
v 1.971251 -2.599213 2.330540
v 2.187111 -2.383353 2.330540
v -2.015180 2.662674 2.330540
v -1.799319 2.878534 2.330540
v -1.732661 -2.599213 2.331947
v -1.948521 -2.383353 2.331947
v 2.253770 2.662674 2.331945
v 2.037910 2.878534 2.331945
v -1.732661 -2.599213 2.460604
v -1.948521 -2.383353 2.460605
v 2.253770 2.662674 2.460603
v 2.037910 2.878534 2.460603
v 2.206845 -2.599213 2.066939
v 2.206845 -2.383353 2.282800
v 2.206845 2.662673 -1.919491
v 2.206845 2.878534 -1.703631
v 2.334930 -2.599213 2.066939
v 2.334931 -2.383353 2.282800
v 2.334931 2.662674 -1.919491
v 2.334931 2.878534 -1.703631
v 2.333526 -2.599213 -1.636968
v 2.333525 -2.383353 -1.852829
v 2.333527 2.662673 2.349462
v 2.333527 2.878534 2.133602
v 2.205440 -2.599213 -1.636968
v 2.205440 -2.383353 -1.852829
v 2.205442 2.662674 2.349462
v 2.205442 2.878534 2.133602
vn -0.0000 -0.0000 -1.0000
vn 0.7071 0.7071 -0.0000
vn -0.0000 -0.0000 1.0000
vn -0.7071 -0.7071 -0.0000
vn 0.7971 -0.6039 -0.0000
vn -0.7971 0.6039 -0.0000
vn -0.0000 1.0000 -0.0000
vn -0.0000 -1.0000 -0.0000
vn 1.0000 -0.0000 -0.0000
vn -1.0000 -0.0000 -0.0000
vn -0.7071 0.7071 -0.0000
vn -0.0000 0.7071 -0.7071
vn -0.0000 -0.7071 0.7071
vn -0.0000 -0.6039 -0.7971
vn -0.0000 0.6039 0.7971
vn -0.0000 0.7071 0.7071
vn -0.0000 -0.7071 -0.7071
vn -0.0000 -0.6039 0.7971
vn -0.0000 0.6039 -0.7971
vn 0.7071 -0.7071 -0.0000
vn -0.7971 -0.6039 -0.0000
vn 0.7971 0.6039 -0.0000
vt 0.375000 0.000000
vt 0.625000 0.000000
vt 0.625000 0.250000
vt 0.375000 0.250000
vt 0.625000 0.500000
vt 0.375000 0.500000
vt 0.625000 0.750000
vt 0.375000 0.750000
vt 0.625000 1.000000
vt 0.375000 1.000000
vt 0.125000 0.500000
vt 0.125000 0.750000
vt 0.875000 0.500000
vt 0.875000 0.750000
vt 0.606839 0.250000
vt 0.606839 0.500000
vt 0.606839 0.750000
vt 0.606839 1.000000
vt 0.390014 0.750000
vt 0.390014 1.000000
vt 0.390014 0.500000
vt 0.390014 0.250000
vt 0.390014 0.000000
vt 0.606839 0.000000
s 0
f 1/1/1 2/2/1 4/3/1 3/4/1
f 3/4/2 4/3/2 8/5/2 7/6/2
f 7/6/3 8/5/3 6/7/3 5/8/3
f 5/8/4 6/7/4 2/9/4 1/10/4
f 3/11/5 7/6/5 5/8/5 1/12/5
f 8/5/6 4/13/6 2/14/6 6/7/6
f 10/14/7 12/13/7 23/13/7 22/14/7
f 28/15/8 32/15/8 44/15/8 42/15/8
f 19/16/9 16/5/9 14/7/9 20/17/9
f 20/17/3 14/7/3 10/9/3 17/18/3
f 11/11/8 15/6/8 13/8/8 9/12/8
f 16/5/7 12/13/7 10/14/7 14/7/7
f 67/19/3 20/17/3 17/18/3 68/20/3
f 66/21/9 19/16/9 20/17/9 67/19/9
f 65/22/1 18/15/1 19/16/1 66/21/1
f 68/23/10 17/24/10 18/15/10 65/22/10
f 23/3/11 24/15/11 28/15/11 27/3/11
f 12/3/9 18/15/9 102/15/9 101/3/9
f 17/18/3 10/9/3 22/9/3 21/18/3
f 18/15/8 17/24/8 21/24/8 24/15/8
f 25/18/3 26/9/3 30/9/3 29/18/3
f 21/18/11 22/9/11 26/9/11 25/18/11
f 24/15/11 21/24/11 25/24/11 28/15/11
f 22/14/11 23/13/11 27/13/11 26/14/11
f 29/24/10 30/2/10 31/3/10 32/15/10
f 29/24/10 32/15/10 36/15/10 35/24/10
f 26/14/7 27/13/7 31/13/7 30/14/7
f 18/15/10 12/3/10 37/3/10 39/15/10
f 34/15/8 33/24/8 35/24/8 36/15/8
f 28/15/9 25/24/9 33/24/9 34/15/9
f 32/15/1 28/15/1 34/15/1 36/15/1
f 25/18/3 29/18/3 35/18/3 33/18/3
f 44/15/10 52/15/10 59/15/10 55/15/10
f 44/15/10 43/3/10 51/3/10 52/15/10
f 19/16/8 18/15/8 39/15/8 40/16/8
f 32/15/10 31/3/10 43/3/10 44/15/10
f 12/13/7 16/5/7 38/5/7 37/13/7
f 16/5/9 19/16/9 40/16/9 38/5/9
f 31/13/7 27/13/7 41/13/7 43/13/7
f 27/3/9 28/15/9 42/15/9 41/3/9
f 47/15/1 45/3/1 46/5/1 48/16/1
f 49/3/1 50/15/1 52/15/1 51/3/1
f 39/15/10 37/3/10 45/3/10 47/15/10
f 48/16/9 40/16/9 54/16/9 58/16/9
f 49/13/7 41/13/7 61/13/7 63/13/7
f 38/5/9 40/16/9 48/16/9 46/5/9
f 37/13/7 38/5/7 46/5/7 45/13/7
f 43/13/7 41/13/7 49/13/7 51/13/7
f 54/16/8 53/15/8 57/15/8 58/16/8
f 56/15/8 55/15/8 59/15/8 60/15/8
f 40/16/3 39/15/3 53/15/3 54/16/3
f 47/15/1 48/16/1 58/16/1 57/15/1
f 42/15/3 44/15/3 55/15/3 56/15/3
f 39/15/10 47/15/10 57/15/10 53/15/10
f 52/15/1 50/15/1 60/15/1 59/15/1
f 50/15/9 42/15/9 56/15/9 60/15/9
f 61/3/9 62/15/9 64/15/9 63/3/9
f 41/3/3 42/15/3 62/15/3 61/3/3
f 50/15/1 49/3/1 63/3/1 64/15/1
f 42/15/8 50/15/8 64/15/8 62/15/8
f 68/23/7 65/22/7 87/22/7 88/23/7
f 66/21/9 15/6/9 71/6/9 72/21/9
f 15/6/9 66/21/9 67/19/9 13/8/9
f 13/8/3 67/19/3 68/20/3 9/10/3
f 70/4/3 69/22/3 77/22/3 78/4/3
f 15/6/8 11/11/8 70/11/8 71/6/8
f 11/4/10 65/22/10 69/22/10 70/4/10
f 65/22/7 66/21/7 72/21/7 69/22/7
f 74/4/1 73/22/1 76/21/1 75/6/1
f 69/22/7 72/21/7 76/21/7 73/22/7
f 71/6/8 70/11/8 74/11/8 75/6/8
f 72/21/9 71/6/9 75/6/9 76/21/9
f 77/22/7 79/22/7 83/22/7 81/22/7
f 69/22/7 73/22/7 79/22/7 77/22/7
f 73/22/1 74/4/1 80/4/1 79/22/1
f 74/11/8 70/11/8 78/11/8 80/11/8
f 82/4/10 81/22/10 83/22/10 84/4/10
f 78/4/3 77/22/3 81/22/3 82/4/3
f 80/11/8 78/11/8 82/11/8 84/11/8
f 79/22/1 80/4/1 84/4/1 83/22/1
f 87/22/9 85/4/9 94/4/9 93/22/9
f 11/11/8 9/12/8 86/12/8 85/11/8
f 87/22/7 65/22/7 97/22/7 99/22/7
f 9/10/3 68/20/3 88/20/3 86/10/3
f 90/1/10 92/23/10 91/22/10 89/4/10
f 86/10/3 88/20/3 92/20/3 90/10/3
f 85/11/8 86/12/8 90/12/8 89/11/8
f 88/23/7 87/22/7 91/22/7 92/23/7
f 93/22/1 94/4/1 96/4/1 95/22/1
f 85/11/8 89/11/8 96/11/8 94/11/8
f 91/22/7 87/22/7 93/22/7 95/22/7
f 89/4/10 91/22/10 95/22/10 96/4/10
f 97/22/1 98/4/1 100/4/1 99/22/1
f 65/22/9 11/4/9 98/4/9 97/22/9
f 11/11/8 85/11/8 100/11/8 98/11/8
f 85/4/10 87/22/10 99/22/10 100/4/10
f 101/3/1 102/15/1 104/15/1 103/3/1
f 23/13/7 12/13/7 101/13/7 103/13/7
f 24/15/10 23/3/10 103/3/10 104/15/10
f 18/15/8 24/15/8 104/15/8 102/15/8
f 105/1/10 106/2/10 108/3/10 107/4/10
f 107/4/12 108/3/12 112/5/12 111/6/12
f 111/6/9 112/5/9 110/7/9 109/8/9
f 109/8/13 110/7/13 106/9/13 105/10/13
f 107/11/14 111/6/14 109/8/14 105/12/14
f 112/5/15 108/13/15 106/14/15 110/7/15
f 113/1/9 114/2/9 116/3/9 115/4/9
f 115/4/16 116/3/16 120/5/16 119/6/16
f 119/6/10 120/5/10 118/7/10 117/8/10
f 117/8/17 118/7/17 114/9/17 113/10/17
f 115/11/18 119/6/18 117/8/18 113/12/18
f 120/5/19 116/13/19 114/14/19 118/7/19
f 121/1/3 122/2/3 124/3/3 123/4/3
f 123/4/11 124/3/11 128/5/11 127/6/11
f 127/6/1 128/5/1 126/7/1 125/8/1
f 125/8/20 126/7/20 122/9/20 121/10/20
f 123/11/21 127/6/21 125/8/21 121/12/21
f 128/5/22 124/13/22 122/14/22 126/7/22
f 129/1/3 130/2/3 132/3/3 131/4/3
f 131/4/11 132/3/11 136/5/11 135/6/11
f 135/6/1 136/5/1 134/7/1 133/8/1
f 133/8/20 134/7/20 130/9/20 129/10/20
f 131/11/21 135/6/21 133/8/21 129/12/21
f 136/5/22 132/13/22 130/14/22 134/7/22
f 137/1/1 138/2/1 140/3/1 139/4/1
f 139/4/2 140/3/2 144/5/2 143/6/2
f 143/6/3 144/5/3 142/7/3 141/8/3
f 141/8/4 142/7/4 138/9/4 137/10/4
f 139/11/5 143/6/5 141/8/5 137/12/5
f 144/5/6 140/13/6 138/14/6 142/7/6
f 145/1/10 146/2/10 148/3/10 147/4/10
f 147/4/12 148/3/12 152/5/12 151/6/12
f 151/6/9 152/5/9 150/7/9 149/8/9
f 149/8/13 150/7/13 146/9/13 145/10/13
f 147/11/14 151/6/14 149/8/14 145/12/14
f 152/5/15 148/13/15 146/14/15 150/7/15
f 153/1/9 154/2/9 156/3/9 155/4/9
f 155/4/16 156/3/16 160/5/16 159/6/16
f 159/6/10 160/5/10 158/7/10 157/8/10
f 157/8/17 158/7/17 154/9/17 153/10/17
f 155/11/18 159/6/18 157/8/18 153/12/18
f 160/5/19 156/13/19 154/14/19 158/7/19
